<?xml version="1.0" standalone="no"?>
<!DOCTYPE svg PUBLIC "-//W3C//DTD SVG 1.1//EN" "http://www.w3.org/Graphics/SVG/1.1/DTD/svg11.dtd" >
<svg xmlns="http://www.w3.org/2000/svg" xmlns:xlink="http://www.w3.org/1999/xlink" version="1.1">
<metadata></metadata>
<defs>
<font id="ariston-extrabold_italic" horiz-adv-x="0" >
<font-face units-per-em="2048" ascent="1638" descent="-410" />
<missing-glyph horiz-adv-x="569" />
<glyph />
<glyph unicode="&#xd;" horiz-adv-x="569" />
<glyph unicode=" "  horiz-adv-x="569" />
<glyph unicode="&#x09;" horiz-adv-x="569" />
<glyph unicode="&#xa0;" horiz-adv-x="569" />
<glyph unicode="!" horiz-adv-x="606" d="M41 152q0 69 49 118q49 47 119 47v2q67 -2 116.5 -51t49.5 -116q0 -70 -47 -117q-49 -49 -119 -49t-119 49q-49 47 -49 117zM240 444l75 854l408 66l-440 -922z" />
<glyph unicode="&#x22;" horiz-adv-x="819" d="M240 817l92 547h321l-286 -547h-127zM618 817l93 547h321l-287 -547h-127z" />
<glyph unicode="#" horiz-adv-x="1128" d="M57 465l45 129h228l71 207h-225l45 129h225l152 436h143l-153 -436h215l151 436h144l-152 -436h207l-45 -129h-209l-70 -207h207l-45 -129h-209l-161 -465h-144l162 465h-213l-162 -465h-141l162 465h-228zM471 594h215l70 207h-213z" />
<glyph unicode="$" horiz-adv-x="1128" d="M6 219q0 12 6 31q4 16 15 35q12 26 30 51q19 22 39 33q6 2 13 4q4 2 10 2q8 0 12 -4t4 -15q0 -12 2 -24q0 -15 2 -27q11 -86 58 -160.5t139 -91.5l184 522q-94 56 -155.5 103t-98.5 92q-33 43 -47 86t-14 94q0 211 150.5 311.5t332.5 122.5q31 5 61.5 7t61.5 2l37 100h76 l-35 -102q139 -27 200.5 -70t61.5 -121q0 -10 -2 -29q-4 -18 -12 -38q-9 -29 -25 -52.5t-39 -23.5q-6 0 -10 6q-4 4 -6 12q-15 92 -58 154q-45 61 -135 94l-170 -471q6 -6 13 -8q4 -4 10 -8q108 -70 198 -158q91 -90 91 -232q0 -124 -82 -231q-82 -109 -222 -168 q-8 -4 -16 -6l-16 -8q-64 -23 -129.5 -31t-153.5 -10l-55 -152l-72 2l55 156q-24 2 -53 8t-57 17q-76 24 -137 71q-62 45 -62 125zM406 45l36 -2h9q127 0 219 72q94 73 94 176q0 69 -45 128.5t-139 112.5zM467 1114q0 -24 6 -45q4 -20 14 -41q19 -31 54 -63q34 -35 94 -78 l160 456q-19 -2 -37 -2q-21 -2 -39 -4q-94 -10 -172 -59q-80 -49 -80 -164z" />
<glyph unicode="%" horiz-adv-x="1626" d="M139 752q0 192 119 335q117 142 277 142q116 0 186 -72q70 -74 70 -194v2v-31q-3 -14 -5 -29q-16 -155 -122 -284q-109 -132 -277 -132q-119 0 -182 70q-66 68 -66 193zM276 2l1037 1235h114l-1040 -1237zM305 602q0 -33 19 -53q18 -23 47 -23v2h4q51 0 98 90 q49 93 84 203q31 94 49 176q19 82 19 109q0 41 -15.5 62.5t-46.5 21.5q-14 0 -28 -8q-15 -11 -31 -27q-37 -41 -72 -117q-37 -75 -65 -159q-27 -84 -43 -160q-19 -76 -19 -117zM909 262q0 193 119 334q117 141 275 141q118 0 188 -71q70 -74 70 -195v2v-35q-2 -16 -5 -32 q-20 -152 -126 -279q-109 -127 -273 -127q-119 0 -182 68q-66 67 -66 194zM1073 111q0 -33 21 -54q18 -20 47 -20v2h4q51 0 100 92t86 203q29 90 47 170q17 78 17 110q0 41 -17 64q-16 20 -45 20q-24 0 -45 -14q-22 -16 -43 -49q-4 -8 -8 -17l-12 -20q-21 -41 -39 -86 q-21 -45 -37 -92q-35 -90 -55 -174q-21 -86 -21 -135z" />
<glyph unicode="&#x26;" horiz-adv-x="1294" d="M68 258q0 143 120 248q119 102 363 168q-16 47 -25 80q-8 32 -12 61q-2 12 -2 25v22q0 127 99.5 207t254.5 80q84 0 138 -41q51 -41 51 -107q0 -75 -58 -143q-59 -67 -166 -117l177 -352q30 72 47 139q14 68 14 134l-2 30h104q-6 -24 -10 -45q-6 -22 -12 -43 q-19 -59 -37 -106t-43 -90q-8 -17 -18 -31q-11 -17 -21 -33l127 -256l-270 -111l-92 189q-82 -84 -183 -125q-100 -41 -217 -41q-147 0 -237 72q-90 69 -90 186zM369 272q0 -88 47 -141q47 -55 125 -55q14 0 28 2q15 2 29 6q43 10 88 39q43 29 92 76l-213 442 q-55 -53 -94 -102q-39 -52 -63 -101q-21 -41 -29 -82q-10 -41 -10 -84zM770 971q0 -33 4 -64q4 -33 14 -63q7 -19 15 -37q6 -19 16 -37v2q64 47 95.5 106.5t31.5 129.5q0 47 -22.5 78.5t-59.5 31.5q-41 0 -67.5 -41t-26.5 -106z" />
<glyph unicode="'" horiz-adv-x="580" d="M231 803q45 35 78 78q33 41 56 82q14 30 22 59q6 29 6 57q0 41 -20 70q-21 27 -56 27l-26 -2l-19 34l306 172q30 -26 50.5 -49.5t30.5 -46.5q9 -16 13 -31q2 -16 2 -32q0 -31 -12 -64q-15 -35 -39 -67q-35 -52 -86.5 -101t-106.5 -92q-51 -39 -98 -70.5t-82 -52.5z" />
<glyph unicode="(" horiz-adv-x="686" d="M57 184q0 394 213 701t547 493v2l23 -20q-138 -184 -254 -442q-119 -261 -205 -537q-62 -201 -102.5 -393.5t-53.5 -356.5l-26 -6q-49 103 -78 191q-31 86 -47 170q-8 47 -13 96q-4 49 -4 102z" />
<glyph unicode=")" horiz-adv-x="756" d="M-133 -354q133 172 249.5 428t200.5 530q66 207 109 406q41 198 55 362l29 8q47 -100 76 -184q28 -86 45 -168q10 -51 14 -104.5t4 -108.5q0 -395 -211 -698q-213 -305 -547 -492h-2z" />
<glyph unicode="*" horiz-adv-x="793" d="M246 893v4v2q0 35 22 55q23 21 72 31q37 8 72 19q34 8 67 18q17 4 33 10q14 4 29 8v2q-21 7 -58 15t-75 18q-60 17 -107 43q-49 25 -49 68q0 41 33 76q30 34 69 34q21 0 42.5 -20.5t43.5 -48.5q13 -17 25 -33q10 -18 20 -37q19 -27 35 -53q17 -27 33 -47l2 39 q-2 20 -2 43q-2 20 -2 43v16v12v31q-2 14 -2 29q0 57 20 84q21 26 64 26t78 -26q32 -29 32 -64q0 -20 -22 -53q-23 -35 -53 -72q-4 -4 -9 -8q-4 -6 -8 -10q-24 -29 -45.5 -53.5t-34.5 -42.5q17 4 33 10q17 4 31 10q10 4 19.5 8t19.5 8q39 17 78 31q39 12 79 12q35 0 58 -26 q20 -27 20 -68q0 -43 -20 -69q-23 -29 -58 -29q-18 0 -55 14q-39 13 -80 29q-4 0 -8 2l-8 4q-33 12 -62 25q-28 12 -47 18q13 -20 33 -45q19 -24 41 -53l12 -12q7 -9 11 -17q26 -33 45 -63q18 -33 18 -58q0 -34 -31 -59q-32 -27 -79 -27q-39 0 -60 25q-20 22 -20 65 q0 31 2 62q2 29 4 57q0 29 2 60q2 28 2 59q-12 -14 -31 -45q-20 -33 -45 -68q-12 -18 -24 -37q-15 -18 -29 -32q-19 -23 -37 -37q-20 -14 -37 -14q-37 0 -67 32q-33 31 -35 70z" />
<glyph unicode="+" horiz-adv-x="1128" d="M43 502l47 135h420l147 428h150l-145 -428h419l-47 -135h-420l-147 -428h-152l148 428h-420z" />
<glyph unicode="," horiz-adv-x="608" d="M4 -307q45 37 78 80q33 41 55 82q15 30 23 59q6 29 6 57q0 39 -21 68q-20 27 -55 27l-27 -3l-18 35l305 172q31 -26 51 -49q21 -24 31 -47q8 -16 12 -31q2 -16 2 -32q0 -31 -14 -64q-14 -35 -37 -67q-35 -50 -86 -99t-106 -92q-49 -39 -97.5 -70.5t-82.5 -52.5z" />
<glyph unicode="-" horiz-adv-x="451" d="M-106 344l96 131h399l-94 -131h-401z" />
<glyph unicode="." horiz-adv-x="608" d="M106 152q0 69 50 118q49 47 118 47v2q68 -2 117 -51t49 -116q0 -70 -47 -117q-49 -49 -119 -49q-69 0 -118 49q-50 47 -50 117z" />
<glyph unicode="/" horiz-adv-x="809" d="M-293 -362l1106 1726h133l-1110 -1726h-129z" />
<glyph unicode="0" horiz-adv-x="1128" d="M55 434q0 27 2 54.5t6 54.5q37 241 213 444q177 201 433 201q176 0 282 -119q105 -121 105 -319v2q0 -37 -2 -72q-4 -35 -13 -70q-45 -235 -221 -430q-176 -194 -424 -194q-166 0 -272 127q-109 127 -109 321zM293 172q0 -70 30.5 -109.5t84.5 -39.5q30 0 57 12t53 41 q33 33 66 90q30 55 67 139q19 41 43 103q23 59 47 129q11 28 21 59q10 29 20 59q33 107 58 205q24 96 24 152v2q0 59 -33 100q-32 39 -83 39q-31 0 -60 -12q-29 -15 -55 -45q-31 -33 -62 -86q-30 -54 -65 -131q-17 -35 -31 -70q-14 -37 -29 -72q-67 -172 -110 -327 q-43 -158 -43 -238z" />
<glyph unicode="1" horiz-adv-x="1128" d="M231 715l25 92l752 420l-428 -1182l-332 -65l342 933z" />
<glyph unicode="2" horiz-adv-x="1128" d="M-78 6q64 117 166 213t213 182q23 19 45 35q21 17 41 33q143 113 252 236q109 120 109 286q0 70 -35 111q-37 39 -99 39h-2h-4q-123 -4 -225 -135q-102 -134 -102 -293v-15q0 -8 2 -14q0 -14 4 -29q4 -14 8 -34v2l-29 -13q-20 33 -33 64q-12 28 -18 57q-6 23 -8 44.5 t-2 43.5q0 164 125 268q123 103 323 103q181 0 283 -74t102 -207q0 -18 -2 -39q-2 -20 -8 -39q-14 -63 -51 -124.5t-92 -110.5q-84 -76 -185.5 -125t-207.5 -92q-138 -57 -269 -125t-221 -191q100 72 207 125q104 54 229 54q60 0 115 -13q55 -12 105.5 -26.5t93.5 -26.5 q41 -12 71 -12h11q4 0 8 2q22 4 44.5 19.5t41.5 39.5l30 -26q-77 -107 -180.5 -160t-224.5 -53q-64 0 -123 10q-61 8 -119 20q-57 13 -110.5 23t-100.5 10q-41 0 -71 -12q-33 -12 -62 -39q-4 -2 -6 -4l-8 -8z" />
<glyph unicode="3" horiz-adv-x="1128" d="M-10 213l59 33q29 -111 86 -164q58 -55 150 -55q110 0 194 94q84 92 121 203q12 36 18 73q7 35 7 68q0 74 -47 117q-50 43 -134 43q-38 0 -71 -9.5t-64 -29.5q-14 -8 -28.5 -19.5t-28.5 -25.5l-25 14l84 190q29 -45 62 -61q30 -18 82 -18q92 0 157 75q66 76 95 166 q8 31 14 62q4 28 4 55q0 55 -37 88q-39 33 -104 33q-82 0 -148 -45q-65 -45 -112 -133v2l-54 8l47 174q52 10 101 20q47 9 92 13q33 4 63 6h64q190 0 293 -64q100 -65 100 -186q0 -135 -96 -197q-98 -63 -215 -84q-35 -4 -70 -6q-35 -4 -65 -6q20 -2 43 -4q20 -4 43 -8 q98 -17 182 -64q82 -49 82 -170q0 -84 -45 -163q-47 -80 -131 -142q-82 -59 -176.5 -84.5t-223.5 -25.5q-108 0 -192 12t-158 43z" />
<glyph unicode="4" horiz-adv-x="1128" d="M-74 270l1211 963l-260 -799l194 -2l-102 -186l-154 6l-67 -211l-324 -61l94 290h-592zM217 436l354 -2l127 391z" />
<glyph unicode="5" horiz-adv-x="1128" d="M-10 229l55 27q18 -109 80 -166q59 -59 154 -59q69 0 129 37q57 34 100 102q20 33 38.5 65.5t35.5 65.5q34 78 55 152q18 71 18 129q0 59 -37 92q-36 31 -108 31q-59 0 -127 -21.5t-154 -69.5l-34 21l202 543h668l-123 -207h-553l-98 -264q55 22 102 38q47 17 94 25 q31 6 66 10q33 2 68 2q161 0 251 -69q89 -72 89 -199q0 -27 -5 -51q-4 -27 -10 -53q-22 -91 -80 -174q-57 -84 -135 -140q-78 -55 -180 -82q-105 -28 -225 -28q-105 0 -187 18q-84 16 -141 51z" />
<glyph unicode="6" horiz-adv-x="1128" d="M51 342q0 207 170 381q168 174 371 309q102 68 201 125q98 55 174 100v3h94q-37 -27 -74 -56q-39 -30 -76 -63q-57 -49 -110 -103q-56 -55 -105 -112q-37 -41 -67 -80q-33 -41 -60 -80q21 6 39 12q17 4 33 6q12 2 27 4h28q146 0 238 -81q92 -84 92 -218q0 -204 -166 -354 q-166 -149 -393 -149q-186 0 -301 98t-115 258zM313 154q0 -58 31 -95q31 -39 80 -39v3h8q29 0 55 14q29 14 54 43q16 18 33.5 47t35.5 63q21 39 41 86q21 46 39 91q29 77 47 149q19 70 19 115q0 53 -29 86q-31 31 -80 31q-84 0 -155.5 -101.5t-116.5 -224.5 q-29 -78 -45 -150q-17 -71 -17 -118z" />
<glyph unicode="7" horiz-adv-x="1128" d="M172 -20q168 274 365 532q194 258 444 467q18 16 37 33q18 14 39 28q18 17 37 33q18 14 36 31q-137 -88 -288 -148q-152 -59 -320 -59q-69 0 -123 8q-55 6 -104 23q-4 -8 -8 -17q-6 -10 -11 -20q-10 -19 -18 -35q-8 -18 -16 -39v2l-66 41q19 27 43 64q23 34 51 73 q56 72 123 133q66 62 135 62q62 0 121 -10q60 -11 119 -23q57 -14 116.5 -24.5t121.5 -10.5q36 0 67 4q29 5 57 11q17 6 35 12q19 6 37 14l19 -12q-54 -66 -117.5 -160t-128.5 -202q-29 -52 -57 -103q-31 -51 -60 -104q-76 -140 -141 -271q-66 -133 -105 -229z" />
<glyph unicode="8" horiz-adv-x="1128" d="M27 254q0 125 90 197q88 71 196 106q21 6 41 12q19 4 37 9q-39 40 -65 79q-27 37 -43 74q-11 29 -17 57q-6 29 -6 58q0 145 108.5 227t237.5 109q33 6 64 10q30 2 61 2q160 0 256 -66q96 -65 96 -174q0 -102 -77 -176q-78 -76 -232 -123v2q57 -61 94 -108q35 -49 52 -94 q10 -27 14 -54.5t4 -56.5q0 -162 -150 -262q-149 -102 -380 -102q-170 0 -275 75q-106 76 -106 199zM156 254q0 -107 71 -172q72 -66 187 -66q108 0 178 60q67 57 67 145q0 74 -49 137q-49 64 -106 117q-23 21 -43 39q-21 16 -39 33v2q-123 -29 -195 -107q-71 -80 -71 -188z M541 971q0 -68 43 -123q43 -57 96 -105q16 -14 35 -28q16 -17 33 -31v2q108 45 172 119q61 72 61 153q0 89 -57 142q-58 51 -154 51q-100 0 -164.5 -51t-64.5 -129z" />
<glyph unicode="9" horiz-adv-x="1128" d="M88 -84q41 29 88 65.5t94 79.5q41 37 82 80q41 41 80 82q43 47 82 94q37 48 66 91q-21 -9 -37 -13q-19 -6 -35 -8q-12 -2 -25 -2q-14 -2 -30 -2q-148 0 -240 84t-92 217q0 205 168 354q166 150 393 150q186 0 301 -98.5t115 -260.5q0 -206 -170 -380q-170 -177 -373 -310 q-102 -67 -199 -123q-98 -55 -174 -100h-94zM393 543q0 -54 29 -86.5t78 -32.5q86 0 157 100q70 101 115 221q31 80 47 156q17 74 17 119q0 57 -31 94q-33 37 -80 37v2q-33 -2 -61 -16q-31 -17 -58 -45q-16 -19 -33 -45q-18 -29 -34 -62q-23 -41 -43 -88q-23 -49 -41 -98 q-27 -72 -43 -140q-19 -69 -19 -116z" />
<glyph unicode=":" horiz-adv-x="608" d="M102 152q0 71 50 120q49 50 118 50v2q72 -2 121 -52q49 -49 49 -120q0 -70 -49 -117q-49 -49 -121 -49q-69 0 -118 49q-50 47 -50 117zM244 610q0 70 49 119t119 49v2q69 -2 118 -51q50 -49 50 -119q0 -69 -50 -118q-49 -52 -118 -52q-70 0 -119 52q-49 49 -49 118z" />
<glyph unicode=";" horiz-adv-x="608" d="M4 -307q45 37 78 80q33 41 55 82q15 30 23 59q6 29 6 57q0 39 -21 68q-20 27 -55 27l-27 -3l-18 35l305 172q31 -26 51 -49q21 -24 31 -47q8 -16 12 -31q2 -16 2 -32q0 -31 -14 -64q-14 -35 -37 -67q-35 -50 -86 -99t-106 -92q-49 -39 -97.5 -70.5t-82.5 -52.5zM248 610 q0 70 49 119q49 47 119 47v2q69 -2 119 -49q47 -49 47 -119q0 -69 -47 -118q-50 -50 -119 -50q-70 0 -119 49.5t-49 118.5z" />
<glyph unicode="&#x3c;" horiz-adv-x="1024" d="M139 754l6 18l1055 539l-51 -146l-578 -297l363 -327l-131 -385z" />
<glyph unicode="=" horiz-adv-x="1128" d="M-8 350l47 137h991l-47 -137h-991zM96 651l47 135h990l-46 -135h-991z" />
<glyph unicode="&#x3e;" horiz-adv-x="1024" d="M-66 156l50 145l579 297l-364 328l133 385l663 -598l-6 -19z" />
<glyph unicode="?" horiz-adv-x="743" d="M123 152q0 69 49 118q49 47 119 47v2q67 -2 116.5 -51t49.5 -116q0 -70 -47 -117q-50 -49 -119 -49q-70 0 -119 49q-49 47 -49 117zM135 670q0 100 84 178q82 76 182 139q41 29 82 54.5t76 52.5q47 34 78 71q29 35 29 74q0 33 -25 52.5t-66 19.5q-16 0 -32 -2 q-17 -4 -35 -11q-84 -28 -156 -110q-73 -84 -96 -178q-4 -11 -6 -21q-2 -12 -2 -24v2l-43 -4l-6 73q0 148 100 240q98 92 254 92q139 0 227 -74q86 -73 86 -188q0 -107 -80 -186q-79 -82 -176 -146q-98 -63 -178 -112q-80 -52 -80 -99q0 -20 19 -35q16 -16 43 -16 q41 0 84 25q41 24 86 69l20 -8l-37 -98q-41 -15 -71.5 -21t-59.5 -10h-26q-15 -2 -29 -2q-113 0 -178 55q-68 53 -68 148z" />
<glyph unicode="@" horiz-adv-x="1509" d="M123 459q0 26 2 53q2 25 8 49q43 252 260 471q215 219 465 281q37 8 74 14q37 4 74 4q204 0 340 -117q135 -116 135 -290v-17t-2 -16q-13 -186 -146 -340q-133 -156 -327 -156q-62 0 -97 15q-37 12 -59 45q-23 -13 -41 -23q-21 -10 -41 -16q-23 -8 -47 -10q-25 -5 -53 -5 q-82 0 -125 33t-43 98q0 11 2 21q0 10 2 20q16 121 119 222q102 98 237 98q41 0 67.5 -8t43.5 -29l203 37l-138 -358q-4 -15 -6 -23t-2 -14v-4q0 -17 14 -27q13 -12 33 -12q76 0 131 88q54 86 86 188q21 72 33 137q10 64 10 103q0 127 -92 211t-231 84q-197 0 -369 -179 q-172 -178 -262 -393q-35 -86 -55 -170q-21 -86 -21 -157q0 -129 105 -203q104 -76 284 -76q152 0 291 47q139 45 275 109q18 10 32 16q13 4 19 4q12 0 22 -10q8 -12 8 -29q0 -14 -10 -22q-12 -10 -24 -15q-4 -2 -9.5 -4t-9.5 -4q-137 -69 -282 -114q-148 -48 -306 -48 q-247 0 -411 127q-166 125 -166 314zM702 506q0 -23 14.5 -37t37.5 -14q14 0 31.5 6t50.5 24l-5 25q0 6 3 16q2 11 4 21l4 12q0 6 2 12l100 258q-4 2 -8 7q-4 2 -6 4q-12 8 -23.5 12t-25.5 4q-19 0 -31 -6q-14 -8 -29 -27q-6 -10 -14 -24.5t-16 -32.5q-39 -80 -64 -152.5 t-25 -107.5z" />
<glyph unicode="A" horiz-adv-x="1942" d="M-45 260q0 115 80 209q78 92 217 143q106 41 223 58q115 16 273 16q47 0 94 -2l94 -4q4 -2 10 -2h8q52 -2 105 -4q51 -2 102 -2q27 59 62 139q34 78 80 160q81 153 194 282q113 127 252 127q82 0 135 -41q53 -43 53 -106q0 -37 -12 -90t-35 -113l-133 -356q10 -2 21 -2 h18q21 2 37 2q14 0 31 2q20 0 43 2q20 2 49 6v2l-53 -80q-43 -2 -86 -2t-86 2l-170 -448q-5 -15 -7 -27q-2 -14 -2 -29q0 -34 23 -53q20 -18 63 -18t107 22q61 21 127 56q24 14 49 28q23 15 45 31v-45q-33 -25 -65 -43q-33 -21 -66 -37q-76 -37 -156 -53.5t-166 -16.5 q-124 0 -194 50q-70 47 -70 135q0 28 8 65q9 37 23 76l117 311q-29 0 -49 2h-41q-19 2 -39 4h-51q-170 -327 -379 -481q-209 -153 -482 -153q-184 0 -293 75q-108 76 -108 203zM225 254q0 -98 63.5 -158.5t168.5 -60.5q35 0 70.5 6t72.5 18q154 52 297 201q143 150 238 361 v2q-41 4 -88 8q-50 4 -99 6q-53 4 -102 6q-51 2 -94 2q-29 0 -58 -2q-28 -2 -57 -6q-156 -25 -283 -115q-129 -92 -129 -268zM1239 668h109l71 2l234 622q4 6 6 14.5t4 16.5q0 4 -2 6t-6 2l-13 -2q-110 -90 -184 -215t-133 -256q-14 -31 -27 -59q-14 -31 -26 -60 q-8 -18 -17 -34q-8 -19 -16 -37z" />
<glyph unicode="B" horiz-adv-x="1790" d="M68 709q0 161 98 309q96 147 262 235q121 66 289 99q166 30 368 30q304 0 478 -82.5t174 -228.5q0 -139 -105 -209q-104 -69 -231 -102q-51 -12 -101 -21q-49 -10 -92 -16q39 -6 84 -12q43 -9 88 -19q117 -28 212.5 -90.5t95.5 -189.5q0 -107 -72 -197q-74 -92 -209 -154 q-104 -47 -240 -67q-135 -21 -340 -21h-98t-98 2q-99 2 -197 9q-98 4 -196 16v33q217 30 311 176q92 143 147 330q45 155 92 311q48 154 105 303l330 150l16 -7l-184 -655q-74 -262 -238 -408q-166 -145 -446 -198q49 -6 98 -10q47 -5 96 -7t99 -2q47 -2 96 -2q127 0 227 23 q98 20 162 61q70 43 125 121q55 76 82 160q8 29 14 57q4 29 4 58q0 77 -37 114t-82 56q-20 6 -38 12q-21 4 -37 10q-19 4 -31 11.5t-12 17.5t10 18q10 6 31 12q96 31 168 129q71 99 79 213q2 7 2 15v14q0 113 -81 170q-82 55 -244 55q-174 0 -334 -55q-160 -57 -313 -172 q-62 -47 -113 -94q-51 -49 -92 -96q-62 -76 -94.5 -150t-32.5 -141q0 -51 18 -94q17 -45 56 -88q4 -7 10 -13l12 -12v2l-41 -41q-53 68 -82 152q-28 82 -28 170z" />
<glyph unicode="C" horiz-adv-x="1300" d="M47 530q0 338 281 600q278 261 641 261q178 0 276 -95.5t98 -267.5v-33l-4 -32q-26 -228 -211 -420q-184 -195 -399 -224q-14 -2 -29 -2q-16 -2 -30 -2q-95 0 -154 46.5t-59 117.5q0 39 14 84q14 43 39 88q31 54 74 107q41 51 92 92q76 61 166 111q88 49 194 88l13 -29 q-45 -25 -107 -64q-61 -38 -127 -88q-70 -53 -135 -114q-66 -64 -111 -127q-28 -41 -45 -82q-18 -43 -18 -82q0 -41 26 -68q25 -26 66 -26q49 0 107 26q57 27 114 74q80 63 156 156q76 90 135 184q59 96 96 186q35 88 35 152q0 90 -57.5 148.5t-143.5 58.5 q-186 0 -350 -193.5t-264 -427.5q-53 -125 -84 -244.5t-31 -207.5q0 -146 105 -207q102 -64 225 -70q8 -2 18 -2h19q168 0 330 45q161 43 317 103v2l12 -33q-149 -72 -311 -115t-330 -43q-297 0 -473 156q-176 153 -176 413z" />
<glyph unicode="D" horiz-adv-x="1974" d="M27 616q0 31 4 62q4 29 12 59q31 127 123 248t225 207q119 78 256 119q137 39 279 55l106 8q53 2 107 2q379 0 604 -153.5t225 -411.5q0 -25 -2 -49.5t-6 -48.5q-23 -150 -107 -289q-86 -141 -217 -244q-135 -104 -321.5 -155.5t-423.5 -51.5q-35 0 -92 2q-60 2 -125 7 q-49 2 -96 6q-50 2 -86 6l2 33q20 0 38 10q17 8 35 29q37 45 78 145q39 100 96 285q17 51 31 98q14 45 29 86q61 176 139 288.5t234 213.5q40 26 88 53q45 25 98 51l22 -18q-65 -101 -110 -211q-47 -111 -84 -223q-10 -31 -21 -62q-10 -31 -20 -61q-4 -13 -6 -23l-8 -20 q-3 -6 -5 -13.5t-6 -15.5q-71 -217 -174 -385q-102 -168 -350 -227h33l237 -11h9q184 0 327 80q146 82 262 252q43 62 78 130.5t62 139.5q32 84 51 166q16 82 16 152q0 201 -123 301q-123 98 -370 98q-242 0 -430 -73q-191 -74 -349 -226q-41 -39 -75 -80q-37 -43 -68 -86 q-68 -92 -106 -178q-39 -88 -39 -153q0 -29 6 -52q4 -24 16 -47q8 -16 23 -32q12 -19 30 -37v2l-32 -31q-66 61 -97.5 129t-31.5 145z" />
<glyph unicode="E" horiz-adv-x="1327" d="M-33 297q0 106 61.5 196.5t172.5 147.5q80 43 166 54.5t174 13.5q28 0 47 10q16 8 16 22q0 11 -14 39q-17 29 -35 72q-18 39 -33 88q-14 49 -16 98v4v5q0 155 104 249q105 95 275 95q137 0 227 -62q88 -63 88 -160q0 -106 -88 -194q-90 -90 -260 -154v2l-23 29 q62 37 115 94q53 58 92 117q31 49 48.5 96t17.5 84q0 35 -21 60q-22 22 -57 22q-61 0 -113 -78q-51 -78 -90 -170q-24 -59 -43.5 -114.5t-34.5 -90.5l-8 -20t-6 -21q-2 -2 -2 -4t-2 -4q-16 -47 -39 -92q-22 -45 -70 -69q-24 -15 -47 -29q-22 -15 -43 -29q-123 -86 -178 -176 q-57 -90 -57 -197q0 -102 69 -168q68 -65 172 -65q52 0 107 12q53 10 111 33q86 35 172 92q84 58 151 133q51 56 76 101q22 45 22 84q0 26 -10 45q-10 16 -33 30l19 33q59 -47 90 -94q29 -49 29 -102v-15q-2 -8 -2 -16q-13 -80 -84.5 -156t-184.5 -129q-94 -45 -213 -67 q-118 -23 -245 -23q-271 0 -420.5 88t-149.5 250z" />
<glyph unicode="F" horiz-adv-x="1939" d="M6 463q0 373 295 650.5t662 277.5q63 0 124 -7q62 -8 121 -20q21 -4 41 -8q21 -4 41 -8q35 -7 72 -13l70 -16q141 -27 282 -51q141 -27 287 -35q37 -2 49 -6t12 -15q0 -6 -2 -16t-10 -31l-16 -51l-11 -33q-4 -14 -8 -24q-14 -33 -30 -41q-19 -10 -54 -10q-94 0 -196 8 q-105 6 -211 18q-113 15 -221 31q-111 16 -207 35l-299 55q-15 0 -27 2q-14 2 -29 4q-28 4 -55 6q-29 2 -55 2q-248 0 -387.5 -196.5t-139.5 -552.5q0 -66 7 -119q4 -53 18 -104q6 -25 13.5 -48.5t17.5 -50.5v2l-23 -28q-4 4 -8 10q-6 6 -10 12q-62 82 -86 170 q-27 86 -27 201zM686 -223q0 57 45 137q45 78 105 160q10 12 20 26q8 13 18 25q72 96 132 180q57 84 57 127q0 35 -25 53q-24 19 -65 19h-70h-8q-18 0 -31 8q-14 10 -14 29q0 26 22 41q21 12 66 12h63q31 -2 62 -2h63q31 -2 62 -2q76 166 170 260t239 149v2l33 -28 q-43 -53 -63 -115q-23 -63 -37 -129q-4 -18 -8 -35.5t-6 -36.5q-5 -16 -7 -30q-4 -17 -8 -33q80 0 160 4q80 2 160 6l82 4q39 2 77 4q17 0 23 -2q6 -4 6 -12t-8 -23.5t-29 -42.5l-33 -43l-6 -12l-6 -6q-4 -4 -8 -6q-6 -2 -14 -2q-54 0 -107 2l-106 4q-37 2 -72 4 q-37 2 -72 4q-18 0 -35.5 2t-35.5 2q-4 -18 -9 -37q-4 -20 -10 -38q-37 -154 -96 -300.5t-172 -261.5q-37 -39 -78 -69q-41 -33 -84 -58q-51 -30 -102 -47q-54 -18 -97 -18q-57 0 -100 39q-43 37 -43 86zM807 -242q0 -22 14 -37q15 -16 35 -16q64 0 119 129q53 129 94 281 q33 123 57 231q23 109 37 156l-106 4q22 -17 33 -33q8 -16 8 -39q0 -18 -13 -53q-14 -37 -49 -102l-104 -209q-10 -25 -25 -50q-14 -26 -28 -55q-9 -16 -17 -33q-8 -16 -14 -32q-19 -37 -29 -72q-12 -37 -12 -70z" />
<glyph unicode="G" horiz-adv-x="1739" d="M-121 260l31 80l22 -2h21q10 -2 22 0q23 0 43 2l50 4q22 2 43 6q0 19 2 38.5t4 39.5q10 76 39 156q28 78 75 161q154 273 457 451t635 193q14 2 29 2h24q127 0 199 -45.5t72 -124.5q0 -52 -37 -111q-39 -61 -117 -133q-8 -8 -16 -14l-17 -17q-123 -108 -284 -213 q-164 -106 -334 -192q-105 -54 -207.5 -97t-196.5 -73q0 -21 2 -43q2 -25 6 -47q15 -93 64 -170.5t160 -77.5q32 0 67 8q35 6 72 18q72 23 141 66q68 41 123 86q6 6 14 12q9 6 15 13l139 444l350 76l-135 -432q-6 -21 -10 -37q-6 -19 -12 -35q-31 -88 -64 -148 q-35 -61 -84 -114l-2 -2l-4 -4q133 18 262 69q127 49 244 113v-39q-141 -84 -285 -156q-145 -71 -309 -104q-25 -23 -51 -45q-29 -25 -60 -49q-65 -54 -139 -101q-74 -49 -149 -73q-29 -11 -56 -15q-28 -6 -57 -6q-55 0 -88 27q-35 26 -35 71q0 70 76 117q74 47 162 78 q61 20 116 35q56 12 88 22q17 35 29 72q10 35 21 72q8 24 16 49q6 22 14 47q-112 -100 -254 -154q-141 -53 -290 -53q-183 0 -295.5 86t-130.5 242q-23 -4 -41 -8q-21 -5 -39 -9q-31 -6 -66 -8q-37 -4 -84 -4zM442 416v2q76 24 189 71q110 48 229 109q197 104 363 244 q163 139 163 295q0 80 -59 135q-61 53 -151 53q-48 0 -97 -12q-51 -15 -104 -39q-94 -47 -184 -127q-93 -82 -162 -186q-74 -113 -121 -252q-49 -142 -66 -293zM602 -338q0 -22 19 -35q16 -14 47 -14q65 0 132.5 49t147.5 158q-24 -2 -69 -6q-45 -7 -93 -19 q-69 -16 -127 -47q-57 -33 -57 -86z" />
<glyph unicode="H" horiz-adv-x="2181" d="M123 983q63 182 221 289q156 106 365 106q71 0 143 -14q70 -16 137 -35q68 -20 132.5 -35.5t125.5 -15.5h15q6 0 14 2q20 0 43 6q22 4 51 12l25 -26q-47 -31 -88 -109t-74 -164q-25 -63 -43 -122q-19 -62 -29 -103q29 10 50.5 18.5t39.5 14.5q19 6 40.5 14t49.5 19 q60 121 125 207q66 83 154 153q43 35 92 64q49 26 98 47q56 24 109 36.5t98 12.5q58 0 94 -31q37 -33 37 -84q0 -24 -8 -49q-10 -25 -29 -51q-47 -62 -155 -123q-109 -64 -281 -129q-20 -43 -45.5 -102.5t-52.5 -126.5q-14 -35 -27 -70q-14 -37 -26 -74q-37 -100 -62 -194 q-24 -97 -24 -164q0 -53 28 -86q29 -33 76 -33q27 0 53 6q27 6 56 19q96 38 188 133q90 94 143 200q27 52 43 103q15 49 15 94q0 59 -23 107q-24 45 -71 77l26 29q94 -53 137 -115q41 -61 41 -145q0 -21 -2 -39q-2 -20 -6 -39q-20 -86 -80 -170q-59 -84 -153 -156 q-113 -86 -232 -127q-118 -40 -254 -40h-12h-14q-103 4 -187 47t-84 166q0 14 2 28v25q9 78 35 153q25 76 54 146l4 8q0 2 2 6l80 197l10 28q-23 -10 -39 -16q-19 -8 -35 -14h-2q-18 -9 -39 -15q-22 -8 -53 -20q-37 -125 -76 -217q-41 -94 -94 -178q-74 -121 -193.5 -207 t-246.5 -117q-31 -6 -62 -10t-61 -4q-88 0 -144 47q-55 47 -55 123q0 114 106 209q107 94 234 161q70 39 137 70q68 31 117 51q72 223 184 354q113 132 320 238l-4 8q-50 -26 -105 -49q-55 -22 -115 -39q-77 -24 -151 -39q-74 -14 -129 -14q-49 0 -96 4q-49 4 -97 10l-94 8 q-49 5 -98 5q-98 0 -158 -35q-59 -37 -98 -121v2zM293 106q0 -32 22 -53q23 -20 56 -20q100 0 182 96q80 96 135 213q33 66 56.5 127t37.5 106v3q-37 -27 -98 -68t-129 -92q-43 -31 -84 -66t-76 -71q-45 -45 -73 -91q-29 -45 -29 -84zM1708 961v2q25 10 48.5 22t45.5 25 q29 18 60 39q30 18 63 41q80 59 121 106q39 45 39 80q0 16 -12 29q-13 10 -31 10q-29 0 -62 -21q-32 -22 -67 -55q-27 -27 -51 -57q-27 -33 -52 -66q-32 -43 -59 -84q-27 -43 -43 -71z" />
<glyph unicode="I" horiz-adv-x="1360" d="M27 246q0 133 119.5 217t312.5 84q84 0 172 -12q86 -15 174 -41q18 -5 37 -11q16 -6 35 -12q14 37 26 74q12 35 25 69q69 193 162 351q92 155 294 270q-43 -16 -88 -29.5t-90 -25.5q-92 -23 -180 -35t-164 -12q-51 0 -100 8q-51 6 -100 14q-52 6 -101 14q-51 7 -102 7 q-101 0 -174 -54q-76 -55 -113 -157v2l-47 10q78 201 228.5 301t367.5 100q92 0 184 -16q90 -16 180 -35q91 -20 183 -37q90 -16 182 -16q-37 -72 -61.5 -158t-47.5 -182q-14 -70 -30 -143q-19 -74 -41 -148q-17 -59 -39 -117q-23 -57 -51 -114q30 -9 65 -23t70 -31 q22 -10 47 -22q22 -12 45 -25l-25 -73q-47 41 -102 73q-55 33 -125 56q-27 -43 -49 -76q-25 -35 -47 -62q-27 -32 -53 -57q-29 -25 -62 -49q-78 -55 -194 -92q-117 -39 -242 -49q-25 -5 -51 -5q-27 -2 -51 -2q-175 0 -277 74q-102 72 -102 197zM78 217q0 -80 84 -135 q82 -57 200 -57q146 0 275 106q127 105 221 299v2q-59 21 -143 33q-86 10 -178 10q-205 0 -332 -72q-127 -71 -127 -186z" />
<glyph unicode="J" horiz-adv-x="1337" d="M27 610q0 189 112 359q113 170 307 274q140 74 324 115q182 39 393 39q35 -2 70 -2q33 -2 66.5 -4t68.5 -5q35 -2 68 -4q22 0 39 -4q14 -6 14 -14q-14 -29 -27.5 -51.5t-25.5 -44.5q-17 -29 -31 -60q-16 -30 -31 -78l-110 -339q-33 -99 -68 -195q-35 -98 -70 -195 q80 23 162 41q80 19 162 27l-27 -76l-53 2q-76 -2 -139 -8q-66 -8 -119 -25q-53 -124 -108 -217q-58 -94 -127 -165q-64 -68 -146 -125q-84 -60 -172 -101q-76 -37 -147 -57q-74 -21 -133 -21q-70 0 -115 43t-45 111q0 139 117 229q114 88 253 148q74 31 143.5 56.5 t123.5 45.5q0 2 2 6v4q2 3 4 7v6q10 28 22 65q13 37 39 113l76 213q10 25 21 53q10 29 22 55q70 166 179.5 313.5t291.5 201.5q-43 2 -74.5 4t-60.5 2h-21h-20q-293 0 -494.5 -80t-359.5 -256q-129 -144 -193 -283q-63 -139 -63 -278q0 -58 12 -103q11 -47 33 -90q4 -4 6 -8 l4 -8v2l-43 -21q-47 86 -71 160q-27 74 -37 143q-2 21 -2 41q-2 19 -2 39zM170 -211q0 -35 27 -55q24 -21 63 -21q119 0 217 104.5t166 229.5q33 59 57 119q25 57 41 104v2q-43 -22 -112 -59q-72 -37 -148 -84q-75 -49 -147 -104.5t-115 -114.5q-22 -31 -35 -62 q-14 -30 -14 -59z" />
<glyph unicode="K" horiz-adv-x="2011" d="M-100 158l32 32q78 -77 189 -118q108 -41 231 -41q195 0 316 114q118 113 186 365l-94 63l123 31q57 227 151 391q94 162 320 262l-8 9q-109 -45 -220 -80q-112 -37 -233 -37q-72 0 -141 10q-72 8 -142 21q-8 0 -14 2q-8 0 -14 2l-78 12l-78 8q-82 0 -141 -51 q-62 -51 -99 -154v2l-47 25q103 168 262 272q160 105 365 105q65 0 129 -6q61 -8 119 -23l229 -55q27 -8 53 -10q25 -4 50 -4q16 0 32 4q15 2 31 6l12 4q6 0 13 2q4 0 8 -2t4 -6l-4 -8q-49 -93 -76 -183q-27 -92 -51 -184q-15 -59 -29 -119q-16 -61 -39 -121q78 47 152 146 q71 96 137 203q45 71 88 141q41 69 82 123l338 49q-21 -37 -41 -74q-23 -37 -47 -74q-127 -198 -311 -370q-187 -172 -418 -205q-6 -19 -10 -31q-7 -12 -11 -22v-4q-2 -2 -2 -5q-4 -10 -8 -22q-6 -12 -14 -29q118 -24 200 -88q80 -65 144 -137q22 -27 42.5 -51.5t43.5 -46.5 q53 -60 110 -101q58 -41 136 -41q16 0 30 2q15 0 27 5q22 6 47 18q23 12 57 35l15 -31q-45 -31 -88 -53.5t-86 -36.5q-58 -21 -115 -31q-59 -10 -121 -10q-139 0 -233 45q-95 43 -181 162q-28 41 -57 90q-31 49 -61 108q-109 -122 -269.5 -223.5t-333.5 -142.5 q-45 -10 -90 -16q-47 -7 -92 -7q-131 0 -235 47q-107 48 -172 138z" />
<glyph unicode="L" horiz-adv-x="1466" d="M-127 106q0 117 145 201q146 82 351 82l114 -4q9 41 15 82l12 82q27 170 72 323q43 154 180 291q69 70 147 119t158 74q37 10 74 16t73 6q127 0 197 -71q70 -74 70 -207v-13v-12q-15 -190 -193 -358q-180 -170 -436 -230v2l-23 46q74 8 132 34q57 27 110 74q12 10 27 23 q12 12 24 26q49 53 92 116.5t76 129.5q33 70 52.5 136.5t19.5 121.5q0 64 -33 102q-35 37 -94 37q-12 0 -25.5 -2t-27.5 -6q-27 -10 -54 -24q-26 -17 -47 -39q-71 -76 -102 -168q-33 -92 -57 -193q-15 -55 -29 -112q-14 -60 -37 -117q-31 -80 -78 -158q-49 -80 -129 -154 q113 -16 222.5 -47.5t215.5 -70.5q19 -6 39 -15q21 -10 40.5 -18t37.5 -14q17 -9 35 -15q33 -10 64 -16q28 -8 57 -8h8h8q23 2 49 12q25 8 62 27l18 -29q-110 -90 -215 -139q-104 -49 -188 -49q-64 0 -152 14q-90 14 -184 39q-45 10 -90 22q-45 13 -88 27q-45 14 -86 29 q-43 12 -76 24q-70 -51 -131 -84q-62 -35 -121 -51q-35 -8 -68.5 -12t-68.5 -4q-76 0 -119 32q-45 33 -45 90zM-86 94q0 -26 31 -39q28 -14 90 -14q102 0 182 24.5t148 75.5v2q-39 7 -86 13q-50 4 -99 6q-18 2 -37 2h-34q-101 0 -148 -17.5t-47 -52.5z" />
<glyph unicode="M" horiz-adv-x="1903" d="M-203 252q0 10 4 18q4 6 11 6q6 0 10 -2q4 -4 8 -10l4 -8q2 -6 6 -12q27 -60 76 -109q47 -51 98 -76q21 -8 41 -12q19 -6 37 -6q27 0 50.5 8t45.5 27q39 35 82 111.5t105 215.5l100 228q29 61 66 139q34 76 77 158q95 170 226 313t303 143q92 0 149 -47q56 -49 56 -127 q0 -12 -2 -24q-2 -15 -4 -29q-3 -8 -5 -16q-2 -11 -6 -19l-307 -770l6 -2q41 78 98.5 203t129.5 260q112 211 258 387q143 176 307 176q53 0 86 -22q31 -25 31 -66l-9 -37l-217 -514q-16 -43 -43.5 -108.5t-58.5 -141.5q-8 -18 -14 -34q-7 -19 -15 -37q-37 -97 -63 -185 q-29 -90 -29 -139q0 -33 27 -51q26 -21 65 -21q60 0 150 33t198 90v2l11 -39q-107 -61 -224.5 -100t-242.5 -39q-136 0 -209 49q-76 47 -76 136q0 45 22.5 121.5t79.5 226.5q84 219 187 426q100 207 248 391q-64 -21 -136.5 -96.5t-146.5 -182.5q-55 -82 -111 -176 q-55 -94 -108 -190q-88 -166 -160 -320.5t-108 -242.5l-361 -113l481 1284l9 35q0 8 -7.5 16t-17.5 8q-21 0 -43 -20q-25 -23 -49 -55q-19 -27 -35 -58q-18 -30 -35 -61q-22 -43 -41.5 -82t-32.5 -68l-143 -321q-24 -60 -61 -131q-37 -74 -84 -150q-95 -153 -222 -280 q-129 -129 -278 -129q-45 0 -88 14q-43 12 -84 39q-25 16 -37 51q-14 33 -22 70q-5 26 -7 51q-4 24 -6 43z" />
<glyph unicode="N" horiz-adv-x="2013" d="M27 563q0 277 227 513.5t502 291.5q30 6 63 10q33 2 64 2q172 0 268 -80q94 -79 131 -256q84 66 176 119q92 51 205 99q14 6 29 12q12 4 26 10q103 39 197 66q92 26 133 26q18 0 29 -4q10 -6 10 -16q0 -8 -6 -21.5t-21 -36.5q-37 -57 -82 -143q-47 -86 -94 -188 q-29 -60 -55 -123q-29 -66 -55 -129q-64 -158 -107 -303q-43 -148 -43 -244q0 -70 39 -107q37 -36 106 -36h13h12q51 4 107 26q53 21 133 66l10 -43q-4 -4 -6 -4q-4 -2 -6 -4q-19 -9 -35 -15q-19 -8 -37 -16q-62 -27 -125 -43q-66 -19 -135 -19q-164 0 -264 97 q-103 96 -103 264q0 293 191 536q188 244 418 400q4 4 10 6q4 2 8 6q4 2 10 6l8 4q15 11 31 21q14 10 27 22l-13 6l-20 -4q-191 -69 -371 -149t-348 -197l2 -49q0 -72 -12 -151q-14 -80 -39 -162q-33 -107 -80 -209q-47 -105 -104 -182q-47 -66 -103.5 -119t-113.5 -88 q-48 -29 -93 -43q-47 -15 -88 -15q-61 0 -96 43q-35 41 -35 117q0 41 7.5 82t21.5 82q41 125 127 248q86 121 182 221q35 37 70 70q33 32 65 61q4 14 11 31q4 14 6 30q16 64 26 125q9 62 9 105q0 76 -43 117t-123 41q-43 0 -86 -11q-43 -10 -86 -32q-86 -41 -170 -123 q-86 -82 -168 -201q-17 -25 -33 -49.5t-33 -52.5q-41 -66 -78 -138q-39 -73 -63 -149q-14 -45 -23 -90q-10 -47 -10 -90q0 -27 4 -50q2 -24 8 -47q2 -10 7 -20q4 -12 8 -25v2l-37 -20q-37 65 -55 115q-21 47 -31 92q-4 24 -6 51t-2 55zM580 82q0 -16 8 -27q6 -10 16 -10 q29 0 76 80q45 80 94 190q14 29 29 60q12 31 24 61q54 127 95 237.5t51 143.5v2q-80 -71 -142 -157q-63 -89 -120 -209q-9 -15 -15 -29q-8 -14 -14 -31q-45 -100 -74 -186q-28 -86 -28 -125z" />
<glyph unicode="O" horiz-adv-x="1491" d="M53 475q0 270 183 498q180 227 497 356l17 -24q-107 -88 -189 -244q-84 -158 -133 -328q-31 -110 -47 -215q-19 -106 -19 -194q0 -152 70 -238q70 -88 189 -88q96 0 178 59q80 60 157 195q15 24 29 51q12 25 27 53q35 74 66.5 156t56.5 166q34 121 57 237q20 115 20 203 q0 105 -36.5 167.5t-100.5 62.5q-108 0 -188 -109q-82 -109 -127 -240q-25 -73 -37 -141q-14 -67 -14 -119v2l-41 -4q-4 21 -6 37q-5 17 -5 33q-2 12 -2 24v25q0 225 121 381q121 154 295 154q178 0 301 -156q121 -156 121 -387q0 -344 -260 -617q-260 -272 -606 -272 q-267 0 -420.5 137t-153.5 379z" />
<glyph unicode="P" horiz-adv-x="2028" d="M47 674q0 176 107 325q106 150 303 250q139 72 315 107q174 35 383 35q59 0 125 -5q66 -4 131 -12q231 -35 426 -155q195 -123 195 -396q0 -43 -7 -86q-8 -45 -22 -90q-39 -135 -131 -260q-94 -127 -221 -215q-95 -66 -213.5 -111t-243.5 -61q-39 -6 -78 -8 q-39 -4 -78 -4q-49 0 -96 6q-49 4 -96 8q-6 -16 -10 -33q-7 -16 -11 -32q-26 -76 -55 -117t-72 -64q-16 -10 -39 -18q-24 -10 -55 -21q-45 -16 -100 -30.5t-115 -26.5q12 27 23 49q8 23 18 43q2 4 4 9.5t2 11.5q8 16 14.5 33.5t14.5 37.5l70 207l90 271q12 34 24 71 q13 37 23 72q69 207 158.5 383t287.5 315q78 56 142 92q61 37 112 58l25 -19q-97 -139 -168 -293q-74 -153 -133 -311q-15 -37 -27 -74q-14 -38 -29 -75l-84 -226l-79 -225l-19 -51q29 -6 49 -6q21 -2 39 -4h12h13q250 0 440 202q191 203 262 447q19 61 29 125q10 61 10 119 q0 208 -131 321q-133 111 -383 111q-117 0 -225.5 -23.5t-214.5 -70.5q-66 -31 -129 -68q-66 -39 -131 -88q-21 -14 -41 -31q-23 -16 -43 -35q-111 -88 -201 -207q-92 -120 -92 -262q0 -24 4 -47q2 -24 8 -47q8 -31 24.5 -63.5t41.5 -69.5l-41 -27q-47 82 -72 154 q-27 70 -35 137q-2 17 -2 35q-2 16 -2 33z" />
<glyph unicode="Q" horiz-adv-x="1421" d="M82 51q0 78 139 139q137 60 311 60h31q15 0 29 -2q43 -2 90 -10q45 -11 98 -25q15 18 29 39q14 18 29 41q55 86 108 196q51 109 94 222q39 112 64 221q24 106 24 190q0 115 -61 180.5t-170 65.5q-129 0 -225.5 -96t-179.5 -305q-9 -19 -15 -39q-8 -21 -16 -39 q-53 -152 -86 -291t-33 -225v-13v-14l4 -24q2 -15 6 -35v2l-28 -21q-121 103 -179 215q-59 113 -59 242q0 33 4 67.5t12 69.5q27 105 85.5 203t138.5 168q100 86 235 133q135 45 291 45q238 0 399 -131q162 -131 162 -383q0 -35 -4 -70q-6 -36 -14 -73q-31 -115 -101 -224 q-69 -108 -168 -186l-16 -12t-16 -13q-19 -14 -37 -26q-21 -14 -41 -27q-31 -18 -64 -37q-34 -18 -78 -41q37 -12 74 -26.5t74 -30.5q98 -43 192 -96q95 -53 168 -121q4 25 7 49q2 25 2 49l57 -16q-2 -10 -2 -19q-2 -10 -4 -18q-10 -59 -27 -117q-16 -59 -37 -104 q-6 -12 -12 -25l-12 -24q-19 -35 -35 -58q-16 -22 -25 -22h-2q-4 0 -10 6t-27 25q-28 24 -61 51q-33 24 -70 49q-59 43 -127.5 84t-136.5 78q-80 43 -158 78q-77 32 -143 57q-94 -35 -168 -51.5t-141 -18.5h-6h-8q-70 0 -111 23q-43 22 -43 61zM117 59q0 -18 47 -30 q45 -15 108 -15q21 0 41 2q21 2 41 4q37 7 74 19q37 10 68 24v3q-21 6 -43 12q-25 6 -47 12q-44 10 -82 16q-41 7 -72 7q-57 0 -96 -15.5t-39 -38.5z" />
<glyph unicode="R" horiz-adv-x="1796" d="M-4 547q0 176 98 338q99 159 275 276q157 103 374 160q215 57 445 57q309 0 471 -98q160 -100 160 -293q0 -229 -177 -366q-176 -138 -387 -201q-69 -21 -139 -33q-69 -14 -131 -20v-5l57 3q119 -3 193 -48q72 -45 127 -98l24 -24l25 -25q41 -39 86 -66q43 -28 102 -28 q15 0 27 2q12 0 25 2q41 6 86 29q45 20 110 63v-41q-71 -53 -151 -88q-82 -37 -164 -53q-37 -8 -74 -13q-39 -4 -76 -4q-188 0 -299 93q-110 90 -202 241q-4 4 -7.5 9.5t-5.5 9.5q-2 -9 -4 -17q-4 -8 -6 -16q-4 -8 -6 -17q-2 -8 -4 -14q-23 -72 -53 -133q-33 -63 -111 -92 q-20 -8 -41 -14q-20 -9 -41 -15q-41 -10 -80 -18q-41 -10 -78 -15q43 88 72 190.5t53 209.5q6 28 15 55q6 27 12 55q27 107 61 211q33 105 86 201q80 135 211 242q129 106 271 172l28 -19q-92 -139 -153 -293q-62 -153 -109 -309q-4 -12 -6 -22q-4 -13 -8 -23l-78 -229 l-10 -35q135 33 236.5 88t191.5 147q55 58 98 121q41 62 66 127q16 43 26 88q9 43 9 86q0 142 -93.5 218.5t-265.5 76.5q-414 0 -743.5 -278.5t-329.5 -630.5q0 -70 12 -121q13 -53 39 -94v2l-37 -23q-12 21 -24 43q-13 23 -21 45q-30 70 -43.5 137.5t-13.5 133.5z" />
<glyph unicode="S" horiz-adv-x="1153" d="M-80 244q0 133 96 196q97 64 213 86q39 6 80 11q39 2 74 2q78 0 141 -4q62 -7 119 -17q-18 35 -41 76q-22 39 -45 82q-18 35 -37 69q-18 35 -35 72q-24 57 -41 113q-16 55 -16 106q0 140 137 242q135 100 324 100q117 0 187.5 -45t70.5 -121q0 -100 -74 -161 q-74 -64 -164 -86l-20 -4q-12 -3 -23 -5q60 82 88 150q29 65 29 127q0 53 -25 82q-24 26 -71 26q-64 0 -113 -61q-49 -63 -49 -147q0 -54 16 -105q17 -51 41 -102q17 -33 35 -66q19 -33 37 -67q45 -76 84 -156q37 -80 45 -164q18 -6 37 -10q18 -6 37 -10q43 -13 86 -25 q43 -14 84 -31v2l22 -84q-32 19 -59 33t-53 27q-19 8 -37 16q-19 6 -39 15q-17 6 -35 12t-41 12q-10 -227 -176 -328.5t-365 -119.5q-26 -5 -53 -5q-29 -2 -55 -2q-197 0 -305 72q-111 72 -111 197zM143 203q0 -86 60 -142q57 -55 147 -55q133 0 231.5 106.5t98.5 245.5v25 q-2 10 -2 20q-4 19 -8 37q-4 19 -13 43v2h-6q-4 -2 -8 0q-8 0 -14 2q-31 5 -60 9q-30 2 -61 2q-150 0 -256 -86q-109 -88 -109 -209z" />
<glyph unicode="T" horiz-adv-x="1565" d="M82 764q0 29 4 59q4 31 12 62q27 100 95 196q65 95 159 160q105 76 248 113q141 35 328 35q102 0 202 -7q101 -6 201 -12q101 -8 203 -14q100 -6 201 -6q26 0 39 -4q10 -7 10 -17q0 -6 -2 -16t-6 -21q-2 -4 -4.5 -8t-4.5 -8q-8 -21 -12 -39q-6 -20 -12 -37 q-12 -41 -29 -67q-16 -27 -55 -27q-74 0 -148 4q-73 4 -147 8l-274 21q-15 0 -29 2h-31q-31 2 -59 4l-62 4l-90 4t-90 2q-291 0 -440 -98q-150 -101 -150 -295q0 -17 2 -33q0 -16 2 -33q9 -59 33 -121q25 -61 70 -137v2l-35 -22q-53 74 -82 141q-31 68 -41 133q-4 19 -4 37 q-2 16 -2 35zM264 193q0 126 107 223q104 94 243 94q45 0 92.5 -8t94.5 -25q24 -8 49 -16q24 -10 47 -23v2l-16 -41q-19 7 -37 15q-19 6 -37 10q-31 8 -62.5 12t-64.5 4q-152 0 -260 -78q-109 -77 -109 -188q0 -76 68 -123q65 -49 166 -49h8h8q74 4 144 35q67 29 116 78 q80 78 121 174q39 96 70 198q6 21 14 41q6 21 12 41q47 148 138 285q88 137 307 233l22 -22q-28 -57 -47.5 -127t-36.5 -147q-12 -54 -24 -109q-13 -57 -27 -113q-24 -88 -61 -174t-97 -162q-96 -124 -241 -188q-148 -65 -303 -78q-23 -2 -43 -2q-23 -2 -45 -2 q-148 0 -232 61.5t-84 168.5z" />
<glyph unicode="U" horiz-adv-x="2015" d="M12 590q0 49 12.5 100t36.5 103q41 94 119 186q76 90 178 164q140 102 285 162q143 57 291 69q20 2 43 4h41q145 0 221 -45t76 -135q0 -20 -4 -45q-6 -27 -15 -53q-6 -15 -12 -29t-12 -29l-459 -919q-12 -27 -18 -47q-9 -23 -9 -35q0 -14 11 -23q8 -10 22 -10 q70 0 182 131q113 129 234 312q35 53 69.5 108t69.5 113q123 202 219 383q97 180 127 248l381 51l-495 -1137q-17 -41 -25 -67q-8 -29 -8 -52q0 -39 26 -59q27 -23 76 -23q72 0 142 23q67 22 133 49q22 10 45 21q22 8 45 16v-37q-82 -43 -174 -76q-94 -32 -189 -39 q-10 -2 -18 -2h-21q-147 0 -239 65.5t-92 172.5q0 29 8 74q8 43 22 88q11 32 23 63q10 31 22 58l351 753l-9 4q-98 -198 -202 -393q-107 -194 -222 -383q-26 -41 -57 -94q-33 -53 -69 -107q-76 -114 -175 -206q-100 -95 -219 -95q-102 0 -166 68q-63 67 -63 178 q0 43 13.5 90t37.5 99l414 800q12 21 18 38.5t6 31.5q0 29 -22.5 43t-63.5 14q-63 0 -135 -24q-71 -25 -145 -70q-135 -78 -258 -205q-125 -127 -201 -264q-41 -72 -63 -143q-25 -72 -25 -135q0 -31 4 -58q2 -26 10 -53q13 -41 37 -82q25 -43 66 -98v2l-31 -23 q-100 113 -150 215q-51 103 -51 195z" />
<glyph unicode="V" horiz-adv-x="1939" d="M25 608q0 330 249 500q250 170 549 229q107 23 211 33q103 8 195 8h20h23q37 -2 70.5 -4t46.5 -4q18 -2 26 -8q8 -8 8 -19v-2v-4q-2 -8 -8 -16t-18 -21q-17 -18 -33 -36q-16 -21 -33 -41q-71 -97 -141 -224q-72 -127 -127 -258q-64 -149 -102 -290q-41 -142 -41 -238 q0 -100 45 -156q43 -55 125 -55q182 0 313 186q131 187 205 410q43 131 65 256q23 123 23 209q0 72 -10 133q-13 59 -35 104q-11 25 -15 35q-4 8 -4 13q0 10 23 18q22 6 65 6q133 0 207 -86q72 -88 72 -246q0 -57 -8 -116q-9 -62 -23 -121q-80 -314 -328 -572 q-247 -258 -569 -258q-201 0 -328 111q-129 111 -129 285q0 235 166 446t365 361q51 36 100 69t96 62q13 8 19 14q6 4 6 8t-4 6q-6 2 -14 2q-45 0 -91 -2l-94 -8q-182 -20 -360 -84q-178 -63 -328 -170q-96 -67 -170 -141q-76 -76 -123 -152q-41 -63 -61.5 -125.5 t-20.5 -119.5q0 -82 39 -154q37 -72 103 -117v2l-25 -28q-100 81 -145 170q-47 88 -47 200z" />
<glyph unicode="W" horiz-adv-x="2148" d="M109 965q65 198 235 305q168 106 373 106q74 0 147 -10q74 -12 148 -25q71 -14 145 -24q74 -12 148 -12l47 4l-2 -37l-33 2q-111 -2 -168 -80q-59 -78 -92 -172q-10 -27 -19.5 -55.5t-17.5 -53.5q-41 -143 -88 -286q-47 -146 -103 -285q-10 -27 -22 -55q-14 -31 -29 -60 l-4 -8l-4 -8q-20 -43 -39.5 -84t-32.5 -76q0 -6 4 -10q5 -4 11 -4q10 0 30 29q21 26 41 63q4 8 11 16q4 9 8 19q24 45 45 84q18 39 18 41l123 258q27 55 58 117q30 59 65 118q72 129 154 254q82 123 168 230q32 41 57 61q25 21 47 25q4 2 10 2h8q25 0 42.5 -17.5t17.5 -42.5 q0 -20 -35 -118.5t-76 -237.5q-28 -96 -53 -205q-27 -108 -43 -219q-6 -51 -10 -102q-4 -54 -4 -105q0 -133 19.5 -196.5t62.5 -63.5q45 0 108 88q62 86 129 242q92 213 139 387q45 172 45 315q0 78 -20 138q-23 59 -70 116q0 2 7 8q4 5 14 9q16 8 41 14q22 6 53 6 q117 0 201 -102q82 -103 82 -248q0 -64 -11 -129q-12 -68 -32 -135q-39 -123 -111 -242q-72 -121 -172 -229q-25 -27 -49 -52q-27 -26 -51 -49q-115 -102 -226 -155q-110 -56 -206 -56q-123 0 -197 80q-76 78 -76 209q0 53 8 107q9 53 23 106q41 148 123 291q80 143 168 274 q39 58 75.5 111t71.5 102q8 11 12 19q5 8 5 14v4q-2 6 -7 10q-4 5 -10 5q-26 0 -90 -86q-63 -86 -133 -201q-12 -21 -25 -39q-12 -21 -24 -41q-51 -86 -94 -166q-45 -82 -70 -135l-109 -221q-116 -242 -194 -340q-80 -101 -152 -101q-65 0 -98 61.5t-33 182.5 q0 57 7.5 118.5t19.5 125.5q29 137 82 266q53 127 121 215q71 94 178 170q106 74 258 139l-4 9q-17 -9 -31 -13q-16 -6 -33 -12q-104 -39 -209.5 -70.5t-218.5 -31.5q-39 2 -76.5 4t-74.5 6q-39 2 -76 6l-78 4q-88 0 -145 -47q-58 -49 -88 -152v2z" />
<glyph unicode="X" horiz-adv-x="1987" d="M47 705q0 102 53 204q54 103 154 197q141 133 324 203q182 67 387 67q196 0 303 -59q104 -62 104 -176v-6v-7q-2 -20 -6 -41.5t-14 -54.5q24 29 57 62q33 30 72 65q49 41 104 82q53 41 111 74q55 31 110 51q54 18 103 18h26q13 -2 25 -6t26.5 -10t30.5 -16v2l-57 -72 q-10 25 -29 37q-18 12 -49 12q-53 0 -131 -59q-78 -62 -160 -146q-24 -26 -51 -55t-51 -57q-72 -80 -131 -154q-60 -76 -94 -119l-7 -20h254l-79 -92h-201l-74 -293q-10 -45 -14 -86q-6 -43 -6 -82q0 -72 45 -115t121 -43q155 0 288 133q131 133 193 293q20 51 31 103 q10 49 10 94q0 29 -2 55q-4 25 -13 45q-8 21 -10 29q-2 6 -2 10q0 10 6 14q4 2 15 2q57 0 98 -61t41 -145q0 -246 -215 -430q-215 -187 -498 -187q-186 0 -303 86q-119 84 -119 215v13v12l4 28q2 15 9 35q-31 -30 -66 -65q-37 -37 -76 -72q-90 -84 -194 -156 q-105 -71 -211 -86q-13 -2 -23 -2q-12 -2 -24 -2q-11 0 -27 4q-18 2 -37 7q-28 8 -51 24q-25 14 -25 37q4 12 15 37q10 22 24 51q4 8 9 16q4 9 8 15q14 26 27.5 44.5t21.5 18.5q22 0 31 -22q6 -25 10 -56q0 -4 2 -8q0 -4 2 -8q4 -35 18 -63q13 -31 49 -31q21 0 49.5 17.5 t59.5 43.5q12 13 27 25l24 24q27 29 49 56q23 24 35 39l160 182l139 158q2 2 6 4q2 2 4 6q7 8 13 18q4 8 8 21l-270 2l79 94l222 -2l125 381q10 27 16 53q4 27 4 49q0 60 -41 92q-43 33 -121 33q-53 0 -108 -14q-58 -16 -115 -45q-143 -70 -274 -201t-199 -274 q-29 -56 -43 -111t-14 -106q0 -21 2 -37.5t6 -30.5q2 -10 6 -18q4 -11 8 -21l-31 -20q-16 18 -30.5 38.5t-26.5 41.5q-20 40 -31 83q-10 41 -10 87z" />
<glyph unicode="Y" horiz-adv-x="2034" d="M80 760q0 235 187.5 386.5t410.5 209.5q70 18 137 28q68 9 129 9q146 0 217 -52q72 -51 72 -153q0 -23 -4 -49.5t-12 -53.5q-5 -12 -9 -24q-6 -14 -12 -27l-418 -915q-2 -6 -4 -13q-2 -6 -4 -10q-2 -8 -2 -16q-2 -8 -2 -14q0 -13 10 -23q8 -10 23 -10q22 0 57 22 q35 23 82 68q152 141 297 337.5t272 403.5q72 119 135 236q62 114 115 221l363 57l-402 -1087q-2 -6 -4 -10q-2 -7 -4 -11v-2q-2 -8 -6 -16q-4 -10 -10 -23q32 7 63 13t62 10q53 8 110 14q56 4 131 8l-41 -65l-114 -4q-58 -4 -115 -10q-29 -2 -57 -7l-58 -8 q-53 -119 -114 -203q-62 -83 -138 -143q-53 -43 -112 -80q-62 -39 -123 -67q-84 -43 -166 -66.5t-143 -23.5q-62 0 -103 32q-41 33 -41 86q0 107 105 189q104 80 229 135q74 33 144.5 58.5t117.5 41.5l8 29l101 274l123 328q12 37 39 102q24 64 53 134q2 4 4 10l4 8 q27 59 49 113q23 53 39 90l-8 4q-45 -98 -121 -250t-172 -313q-135 -228 -299 -424q-166 -199 -338 -242q-20 -4 -39.5 -6t-38.5 -2q-92 0 -151 59q-62 60 -62 150q0 47 17 110q16 64 49 136l352 776q2 4 6 10l4 12q2 10 4 20.5t2 18.5q0 33 -18 49q-20 17 -59 17 q-68 0 -160 -41q-94 -43 -197 -119q-164 -125 -250 -262q-86 -139 -86 -285q0 -31 4 -57q5 -29 13 -58q16 -53 49 -108t86 -119v2l-31 -26q-112 118 -170 239q-57 119 -57 242zM813 -313q0 -25 18 -41q19 -17 46 -17q36 0 79 21q43 18 86 51q82 63 158 169.5t119 225.5v2 q-111 -43 -207 -98t-172 -125q-63 -57 -94 -104q-33 -50 -33 -84z" />
<glyph unicode="Z" horiz-adv-x="1655" d="M-100 63q0 76 79.5 117t176.5 60q65 12 127 18q61 4 96 4l211 -6h26q66 63 117 139q51 74 101 152q6 8 12 18q6 8 12 19q12 20 27 41q12 18 24 39l-145 2l63 90h142q116 145 250 248q133 100 301 182q-109 -27 -197 -41q-90 -17 -156 -17q-75 0 -149 17q-74 14 -146 33 q-69 16 -135.5 31.5t-128.5 15.5q-125 0 -209 -113q-86 -115 -129 -252q-20 -67 -30.5 -131.5t-10.5 -116.5q0 -82 39 -135t97 -53q98 0 170 104q71 105 112 230q27 80 41 155q12 74 12 121q-2 17 -2 33q-2 14 -2 29q0 10 4 16q2 4 7 4q4 0 10 -4l10 -10l6 -6q2 -4 4 -9 q23 -34 35 -73q10 -39 10 -82t-10 -94q-12 -52 -33 -103q-51 -131 -151 -237q-103 -109 -226 -109q-98 0 -163 82q-68 80 -68 199v18q0 8 2 17q17 225 207 421q188 195 412 240q28 6 55 10q27 2 53 2q94 0 182 -20q86 -23 164 -47q80 -27 154 -47q72 -23 137 -23 q23 0 44.5 4t41.5 10q4 0 8 2q2 0 6 3q13 4 25 8q12 2 25 4q6 0 10 -2q2 -2 2 -6q0 -7 -4 -15q-4 -10 -15 -24q-36 -51 -65 -105l-62 -110q-32 -64 -67 -127.5t-82 -118.5l233 2l-61 -92h-233q-99 -129 -207 -209q-111 -80 -238 -152q-33 -16 -65 -32q-33 -19 -68 -37l41 -2 l211 -17q20 -4 40.5 -6t41.5 -4q35 -4 71 -6l70 -8q55 -4 113 -6q55 -5 110 -5q97 0 161.5 8.5t115.5 24.5l8 -28q-135 -93 -246 -144q-110 -51 -217 -67q-33 -4 -63 -7q-33 -4 -66 -4q-49 0 -108 7q-62 4 -125 10q-56 8 -111 16t-102 19l-209 51l-35 8q-104 -53 -203.5 -82 t-177.5 -29q-63 0 -104 25t-41 65zM-61 68q0 -25 30 -37q31 -15 82 -15q19 0 37 2q18 0 37 2q53 7 108 25q56 16 125 47v2q-36 8 -75 17q-39 6 -78 10l-58 4q-28 2 -57 2q-76 0 -113.5 -14.5t-37.5 -44.5z" />
<glyph unicode="[" horiz-adv-x="748" d="M-154 -362l607 1726h510l-17 -47h-201l-577 -1632h197l-17 -47h-502z" />
<glyph unicode="\" horiz-adv-x="799" d="M150 1364h122l512 -1726h-120z" />
<glyph unicode="]" horiz-adv-x="748" d="M-270 -362l16 47h201l577 1632h-196l16 47h502l-606 -1726h-510z" />
<glyph unicode="^" horiz-adv-x="1024" d="M395 991q49 45 86 88t64 86q14 25 26 49q13 25 23 50v2h211q12 -72 36.5 -142.5t61.5 -136.5l-82 2q-30 19 -59 41q-29 23 -57 45q-5 2 -7 4q-4 2 -6 6q-16 13 -33 25q-16 12 -32 25q-19 -15 -35.5 -31.5l-32.5 -32.5l-4 -4l-6 -6q-21 -19 -39 -37q-21 -18 -41 -35z" />
<glyph unicode="_" horiz-adv-x="1024" d="M10 -190h1006v-172h-1006v172z" />
<glyph unicode="`" horiz-adv-x="580" d="M203 932q0 31 14 63q12 33 33 66q35 51 86 100t106 92q52 41 101 74q47 31 82 51l20 -24q-43 -37 -76 -76q-32 -39 -53 -80q-16 -31 -24 -61q-11 -33 -11 -62q0 -43 22.5 -69.5t55.5 -26.5l27 4l18 -33l-305 -174q-31 25 -51 49q-23 25 -33 49q-6 15 -8 29q-4 15 -4 29z " />
<glyph unicode="a" horiz-adv-x="1151" d="M-6 193q0 47 14 104q12 55 39 113q25 55 57 108q33 51 70 96q74 88 174 136q101 47 213 47q66 0 107 -15q39 -14 65 -49l311 62l-223 -596q-10 -29 -14 -43q-4 -17 -4 -29q0 -33 23.5 -53.5t58.5 -20.5q30 0 76 15q45 12 92 34q26 13 53 29q24 14 49 31l16 -23 q-57 -47 -122 -80q-68 -32 -138 -51q-39 -8 -75 -12q-37 -6 -74 -6q-84 0 -137 20q-54 21 -88 70q-31 -21 -60 -35q-28 -16 -57 -27q-41 -16 -84 -22t-90 -6q-101 0 -176.5 43t-75.5 160zM289 152q0 -46 23.5 -72.5t62.5 -26.5q33 0 63 15q31 14 60 30l12 8q6 5 12 9l-6 43 q0 10 2 26q2 17 6 33q4 12 8 25q3 10 7 20l168 443q-21 24 -48.5 37.5t-58.5 13.5q-25 0 -45 -8q-23 -11 -43 -31q-23 -25 -45 -68q-25 -45 -55 -114q-56 -123 -88 -230q-35 -106 -35 -153z" />
<glyph unicode="b" horiz-adv-x="995" d="M-6 186q0 17 4 39q2 21 8 43q2 11 6 21l4 16l351 1002l323 59l-420 -1206q-8 -27 -12 -41.5t-4 -24.5q0 -31 20 -49q19 -20 52 -20q65 0 124.5 59t104.5 129q25 41 45 78q18 37 33 63q-35 60 -53 107q-21 45 -29 88q-4 18 -6 38.5t-2 41.5q0 94 45 149q43 56 119 56 q77 0 124 -58q48 -59 48 -153q0 -74 -27 -152q-27 -80 -86 -180q35 -27 65 -43q31 -17 60 -23q12 -4 24 -4q13 -2 25 -2h16q9 0 17 2q10 2 22 6q11 2 25 9l-31 -70q-31 0 -55 6q-27 4 -51 14q-31 11 -62 29q-33 18 -73 45q-95 -98 -179 -160q-84 -61 -168 -90 q-34 -10 -69 -14q-37 -6 -74 -6q-115 0 -188 55q-76 55 -76 141zM592 633q0 -39 6 -78t18 -78q7 -20 15 -39q8 -18 18 -39v2q27 70 41 136q12 63 12 122q0 66 -12 96.5t-39 30.5q-26 0 -43 -41q-16 -43 -16 -112z" />
<glyph unicode="c" horiz-adv-x="817" d="M-10 193q0 18 2 37.5t4 37.5q33 195 203 359t368 178h15h14q84 0 129 -41q43 -41 43 -119v-20q-2 -13 -4 -25q-14 -96 -74 -178q-61 -84 -133 -103q-8 -2 -14 -2q-8 -2 -17 -2q-34 0 -59 25t-25 57q0 56 43 95q41 38 93 71q8 4 18 10q8 7 18 13q39 26 68 55q29 27 29 61 q0 25 -17 41q-18 17 -43 17q-98 0 -176 -107q-80 -106 -127 -233q-29 -76 -43 -148q-16 -71 -16 -120q0 -60 37 -91q34 -32 104 -32h12h9q79 4 165 34q86 31 205 99v2l17 -25q-111 -78 -228 -112q-118 -37 -252 -37q-30 0 -65 2t-72 6q-88 12 -160 55q-71 43 -71 140z" />
<glyph unicode="d" horiz-adv-x="1167" d="M-12 190q0 43 8 91q8 45 24 92q60 162 199 297q139 133 316 133q47 0 86 -8q38 -11 73 -33q6 -4 15 -8q6 -6 12 -11l199 564l325 59l-416 -1182q-8 -22 -10 -37q-4 -14 -4 -26q0 -37 27 -55q24 -21 69 -21q56 0 125 29q70 28 148 86v2l16 -25q-94 -78 -192 -110 q-101 -35 -230 -35q-94 0 -151 20q-58 21 -92 66q-70 -45 -152 -66.5t-170 -21.5q-113 0 -168 51q-57 49 -57 149zM281 150q0 -46 26 -72q27 -27 72 -27q14 0 28.5 2t28.5 8q23 9 45 23q21 12 43 33l-4 37v2v2q0 10 4 23.5t13 37.5l170 477q-21 35 -50 54q-30 16 -67 16 q-25 0 -45 -10q-23 -11 -43 -33q-31 -33 -64 -98q-32 -66 -73 -174q-50 -129 -66 -189q-16 -59 -18 -104v-4v-4z" />
<glyph unicode="e" horiz-adv-x="825" d="M-10 176q0 47 14 110.5t43 143.5q62 166 184 268q121 103 306 103q94 0 143 -35q49 -37 49 -109v-14q-2 -8 -2 -16q-14 -107 -127 -205q-115 -100 -299 -170q-4 -25 -6 -39q-2 -16 -2 -31v-4v-6q0 -66 43 -102q41 -39 115 -39q84 0 180 35q96 32 196 96v2l17 -29 q-39 -26 -76 -47q-37 -20 -74 -37q-88 -37 -178 -51q-92 -16 -205 -16q-22 0 -47 2q-26 0 -51 2q-84 10 -154 49q-69 39 -69 139zM311 293v2q25 18 60 53q32 33 69 76q23 25 43 53q21 27 41 53q39 56 66 109q24 53 24 90q0 21 -12 35q-14 12 -33 12h-10q-6 -2 -10 -4 q-45 -18 -86 -92q-43 -74 -78 -160q-27 -67 -45 -129q-21 -63 -29 -98z" />
<glyph unicode="f" horiz-adv-x="815" d="M-14 225q0 27 6 76q6 47 14 100q19 76 51 140q31 61 80 61q43 0 60 -31q14 -30 18 -65q2 -10 4 -19v-20q2 -2 2 -4v-8q6 18 11.5 36.5t9.5 36.5q4 11 8 21q2 10 4 18q33 115 72 228q36 110 90 217q16 30 41 71q22 41 53 82q49 68 110.5 128.5t124.5 84.5q15 6 31 11 q17 2 31 2q53 0 79.5 -45.5t26.5 -137.5q0 -51 -10 -110q-10 -62 -29 -123l-20 -62q-12 -30 -25 -61q-53 -117 -133 -211q-82 -94 -170 -182l-8 -8q-6 -7 -10 -11l-107 -379h17q86 0 164 19q86 20 170 55q16 6 34 15q17 6 33 14v2l15 -29q-101 -63 -213.5 -88.5 t-229.5 -25.5l-55 -187q-2 -8 -4 -18q-2 -13 -4 -25v-12q-2 -6 -4 -14q-5 -29 -15 -54.5t-35 -31.5q-20 -3 -41.5 -5l-43 -4t-42.5 -4q-20 -2 -43 -4h-10h-12q-23 2 -41 10q-18 9 -18 37q4 15 6 29q2 12 6 27q2 14 6 28q2 12 4 27l64 233q-72 23 -97.5 60t-25.5 110zM76 170 q0 -33 10 -49q8 -19 35 -35v2l63 248q2 2 4 6v8q9 29 13 56q4 24 4 36q0 19 -6 29q-9 10 -21 10q-22 0 -43 -51q-22 -53 -37 -115q-10 -43 -16 -82.5t-6 -62.5zM530 522q88 107 152 232q61 123 115 295q28 96 43 155q12 58 12 96q0 23 -8 37q-10 15 -23 15q-4 0 -10 -4.5 t-12 -10.5q-8 -8 -15 -18q-6 -12 -12 -27q-31 -71 -53 -145q-25 -76 -47 -152q-2 -10 -4 -18q-4 -10 -6 -21q-9 -28 -17 -55q-8 -29 -16 -57z" />
<glyph unicode="g" horiz-adv-x="1151" d="M-6 193q0 36 6 75q4 37 14 76q52 174 197 319.5t336 145.5q67 0 117 -16q47 -19 88 -58l297 53l-287 -790q82 18 180 63q98 43 213 113l16 -27q-22 -16 -43 -28q-20 -15 -41 -27q-26 -18 -55 -33q-31 -16 -63 -32q-45 -21 -101 -41q-57 -23 -129 -49q-8 -23 -16 -41 q-10 -21 -18 -35q-11 -23 -23 -39.5t-25 -30.5q-34 -39 -92.5 -72.5t-122.5 -56.5q-34 -10 -69 -16q-35 -8 -66 -8q-71 0 -114 29.5t-43 80.5q0 70 75 121q76 49 215 70l39 112q-45 -26 -100 -39q-57 -12 -123 -12q-125 0 -193 51q-69 49 -69 142zM193 -264q0 -25 18 -41.5 t45 -16.5q55 0 98 54q41 53 74 172q-102 -19 -168.5 -66t-66.5 -102zM279 129q0 -39 24 -63q23 -27 59 -27q9 0 17 2q8 0 16 2q25 6 51 25q25 16 56 45l211 598q-19 28 -43 45q-27 14 -62 14q-30 0 -55 -12q-27 -15 -53 -45q-35 -43 -72 -127q-39 -84 -88 -219 q-39 -107 -49 -154q-12 -49 -12 -84z" />
<glyph unicode="h" horiz-adv-x="1202" d="M-37 123q0 22 6 49t17 55l393 1073l328 68l-488 -1313l-4 -16l4 -6h2t4 2q4 4 11 12q6 10 25.5 47t45.5 94q25 52 60 115q32 64 75 129q86 137 203 250q115 113 246 113q72 0 113 -31q38 -31 38 -86q0 -21 -4 -43.5t-10 -46.5q-2 -8 -4 -17l-8 -20l-144 -344 q-10 -29 -16 -55.5t-6 -49.5q0 -32 18 -49q19 -16 54 -16q61 0 115.5 25.5t107.5 58.5q14 8 31 18q14 8 28 17l17 -21q-88 -69 -189.5 -110t-214.5 -41q-110 0 -178 47q-70 45 -70 121q0 18 4 43q5 22 11 47q4 14 10 28q4 13 8 25l168 416l2 4q0 2 2 4q0 2 2 6v4l-6 8 q-10 -2 -43 -35q-35 -34 -82 -88q-100 -116 -184 -247q-86 -131 -164 -267q-4 -10 -10 -20t-13 -21q-4 -8 -8 -14q-4 -8 -8 -14q-22 -31 -49 -39q-29 -10 -90 -10q-70 0 -113 38q-43 39 -43 103z" />
<glyph unicode="i" horiz-adv-x="621" d="M-10 137q0 17 4 36.5t8 39.5q0 4 2 8q0 4 2 8l184 508l328 68l-221 -617q-6 -22 -10 -41.5t-4 -37.5q0 -33 20 -52q21 -18 59 -18q56 0 107 27q49 24 94 57q17 10 33 20q14 11 31 21l18 -19q-92 -82 -186 -116q-97 -37 -207 -37q-123 0 -193 39q-69 37 -69 106zM301 1096 q0 71 51 123q49 49 119 49v2q72 -2 123 -51q49 -52 49 -123q0 -70 -49 -119q-51 -51 -123 -51q-70 0 -119 51q-51 49 -51 119z" />
<glyph unicode="j" horiz-adv-x="797" d="M-4 129q0 80 57 121q58 39 125 51q10 2 18.5 4t16.5 2l131 381q-106 -24 -184 -108q-80 -86 -97 -199l-36 6q6 94 33.5 151.5t86.5 100.5q54 35 132 63q77 29 161 52q68 16 133 28q64 13 115 21v2l-174 -502q4 -2 8 -2q4 -2 8 -2q7 -2 13 -2q4 -2 10 -4 q70 -12 136.5 -31.5t127.5 -56.5l-26 -53q-74 45 -146 73q-74 29 -145 39l-205 -594q-8 -24 -29 -37q-20 -12 -53 -12q-39 0 -63 19q-27 16 -44 53q-8 18 -16 41q-8 20 -16 45q-11 31 -21 65q-12 35 -22 72q-17 59 -25 115q-10 55 -10 98zM57 70q0 -21 2 -41q0 -21 4 -41 q7 -62 23 -123q16 -64 33 -123q4 -12 8 -21q4 -8 8 -14q2 -2 4 -2q2 -2 4 -2q4 0 8.5 4t4.5 10q-2 7 -2 13q-2 6 -2 12q-2 10 -5 20q-2 11 -4 21q-6 33 -10 64.5t-4 66.5q0 63 10 123q8 59 25 119q8 28 18 59q8 29 19 59v2q-72 -16 -107 -67q-37 -51 -37 -139zM432 1098 q0 71 51 121q49 49 119 49v2q72 -2 123 -51q49 -50 49 -121q0 -70 -49 -121q-51 -51 -123 -51q-70 0 -119 51q-51 49 -51 121z" />
<glyph unicode="k" horiz-adv-x="1153" d="M-10 147q0 25 6 58q4 31 16 63l365 1035l323 63l-456 -1290l-6 -25q0 -4 2 -4q0 -2 2 -4h2q6 0 26 35q21 35 43 78l4 8t5 8q20 43 38 80q19 37 23 47q18 39 41 86q20 45 45 90q63 121 156 223q90 101 229 101q88 0 141 -37q54 -39 54 -100q0 -127 -154 -226 q-156 -98 -381 -114l2 -5q84 -2 138.5 -12t101.5 -41q24 -16 51 -39l55 -55q23 -25 43 -39q21 -16 41 -25q15 -6 29 -8q14 -4 29 -4q10 0 20 2q8 0 18 2q21 4 48 19q24 12 63 39l18 -23q-86 -72 -176 -104q-92 -35 -188 -35q-125 0 -215 72q-90 69 -162 225q-20 -35 -33 -60 q-12 -26 -24 -49l-2 -2l-4 -8q-5 -6 -7 -12q-20 -43 -36.5 -72t-32.5 -47q-23 -29 -49 -35q-27 -8 -68 -8q-86 0 -135 41q-49 39 -49 108zM451 330v2q77 33 145 84q66 51 109 108q26 35 43 70q14 33 14 63q0 23 -12.5 38.5t-32.5 15.5q-35 0 -88 -68q-56 -68 -113 -178 q-16 -31 -33 -64q-16 -34 -32 -71z" />
<glyph unicode="l" horiz-adv-x="629" d="M-6 139q0 19 4 43q2 25 10 51q2 7 4 15l4 12l361 1034l328 72l-412 -1182q-6 -22 -10 -39.5t-4 -29.5q0 -33 22 -54q23 -20 57 -20q48 0 116.5 28.5t150.5 82.5l18 -23q-80 -59 -166 -94q-88 -35 -176 -47q-18 -2 -37 -2q-20 -2 -41 -2q-110 0 -170 41q-59 38 -59 114z " />
<glyph unicode="m" horiz-adv-x="1739" d="M-23 137q0 27 6.5 57.5t18.5 65.5l170 469l326 68l-267 -736q-2 -8 -4 -14l-4 -12q0 -2 2 -4q2 -4 4 -4q4 0 9 4q2 2 6 8q30 61 69 150.5t86 183.5q82 162 192.5 295t260.5 133q72 0 115 -35q43 -37 43 -98q0 -21 -4.5 -43.5t-14.5 -44.5l-207 -519q-2 -6 -2 -10l-4 -12 q0 -4 4 -6q2 -4 4 -4t7 2l4 4q2 4 6 8l4 8l102 221q21 41 45 93q25 49 54 100q73 127 180 233q104 105 242 105q69 0 112 -33q41 -35 41 -90q0 -16 -2 -33q-4 -18 -12 -37l-170 -432q-2 -6 -2 -10q-2 -4 -2 -8q-2 -8 -2 -17q-2 -8 -2 -16q0 -37 19.5 -55.5t55.5 -18.5 q45 0 119 31q72 31 156 86l18 -23q-104 -77 -207 -112q-102 -37 -204 -37q-111 0 -177 45q-67 43 -67 119q0 20 6 45q4 24 12 49l4 12t4 13l181 446l4 14q0 2 -2 4q-2 3 -6 3l-17 -7l-2 -4q0 -2 -2 -2v-2h-2l-10 -10q-8 -6 -25 -23q-82 -71 -147 -172q-66 -100 -123 -206 q-33 -60 -64 -119q-30 -60 -59 -113q-10 -20 -18 -35q-9 -14 -17 -26q-20 -25 -43 -29q-22 -6 -65 -6q-78 0 -127 45q-51 43 -51 113q0 22 8 53q8 28 22 67l174 451l2 2q0 2 2 6q2 2 5 4v4l-9 9q-4 -3 -10 -7q-8 -4 -18 -14q-127 -127 -224 -283q-96 -155 -172 -317 q-6 -12 -12 -25l-12 -24q-2 -2 -2 -4q-2 -4 -2 -6q-23 -45 -47 -60q-27 -14 -74 -14q-94 0 -141 37q-48 35 -48 106z" />
<glyph unicode="n" horiz-adv-x="1174" d="M-29 131q0 23 6 51q7 27 19 62l178 483l326 59l-271 -723l-4 -16l4 -8h2q5 0 9 4q4 6 10 16q26 62 63 144q35 80 78 166q84 161 203 296.5t272 135.5q72 0 115 -35q41 -37 41 -98q0 -19 -4 -37.5t-10 -36.5l-162 -387q-10 -29 -17 -49q-6 -23 -6 -39q0 -33 22.5 -51.5 t61.5 -18.5q58 0 109 24.5t100 55.5q14 8 28.5 17.5t29.5 17.5l18 -23q-21 -16 -39 -28q-20 -15 -41 -27q-80 -47 -160 -70q-80 -22 -164 -22q-116 0 -180 47q-65 45 -65 127q0 16 2 35q2 16 8 35q2 10 6 22q4 10 8 21l183 444l6 18q0 2 -2 5h-6h-3h-2t-6 -3.5t-12 -11.5 q-92 -74 -168 -184q-78 -111 -143 -227q-35 -64 -66 -125q-33 -64 -61 -121q-2 -2 -2 -4q-2 -2 -2 -4q-25 -45 -52 -60q-28 -14 -79 -14q-89 0 -134 35q-47 34 -47 102z" />
<glyph unicode="o" horiz-adv-x="1032" d="M-6 217q0 27 4 53q2 25 6 52q29 127 119 243q90 117 209 178q14 9 29.5 15t29.5 12q33 12 64 21q28 8 47 8q10 0 16 -4q4 -4 4 -11q0 -4 -39 -69.5t-84 -161.5q-26 -51 -49.5 -107.5t-40.5 -115.5q-16 -49 -24 -99q-11 -51 -11 -98q0 -49 22.5 -78.5t59.5 -29.5 q68 0 123 59q53 59 92 129q21 37 37 74q15 35 27 61q-57 70 -86 144q-31 71 -31 151q0 102 45 164q43 59 115 59q84 0 133 -67q49 -70 49 -187q0 -75 -16 -147q-19 -74 -58 -146q17 -6 31 -10q12 -4 25 -8q16 -4 32 -4q17 -2 37 -2q19 0 35 2q15 0 29 2q20 2 43 8 q20 6 51 17v2l8 -33q-24 -10 -45 -17q-20 -6 -37 -10q-16 -2 -32 -2q-19 -2 -39 -2q-27 0 -47 2q-23 2 -43 6q-15 2 -29 6q-17 5 -33 11q-88 -158 -201.5 -230.5t-269.5 -72.5q-158 0 -231 57q-76 57 -76 176zM563 690q0 -24 4 -49q2 -27 8 -53q11 -53 31 -103 q19 -49 43 -84v2q13 56 23 113q8 57 8 115q0 90 -14 139q-15 47 -43 47q-27 0 -43 -35q-17 -34 -17 -92z" />
<glyph unicode="p" horiz-adv-x="1253" d="M-47 -397l141 399q-51 14 -76.5 45t-25.5 70q0 49 35 69q34 21 77 27q19 2 35 4h31l145 420q-86 -59 -155 -156q-70 -96 -107 -209l-6 68q0 100 70 178q67 76 151 127q17 10 33 21q14 8 31 16l22 66l310 61l-23 -68q39 2 66 7q26 2 53 4h14h14q138 0 213 -62 q76 -63 76 -176q0 -147 -98 -254q-100 -108 -219 -176q-8 -6 -19 -10q-10 -6 -18 -11q59 -28 117 -45q55 -16 100 -16q70 0 145 41q74 39 168 125l23 -25l-14 -14q-9 -6 -15 -12q-78 -62 -157 -109q-82 -47 -187 -47q-69 0 -137 14q-70 15 -137 43q-45 -16 -88 -24 q-43 -10 -84 -17q-23 -2 -43.5 -4t-42.5 -2l-90 -266zM68 94q0 -22 10 -37q8 -16 26 -28l54 153q-39 -2 -64.5 -26.5t-25.5 -61.5zM385 4h21q18 0 36 2q25 4 50 14q16 7 32 15q17 8 33 20q-18 13 -37 23q-20 8 -41 16q-14 6 -26 12q-15 7 -27 13zM444 178q21 -10 43 -16 q21 -8 41 -17q21 -8 43 -14q21 -8 41 -16q31 43 58 90q24 45 45 92q33 72 51 139q16 68 16 123q0 70 -30 109q-33 39 -86 39l-41 -2z" />
<glyph unicode="q" horiz-adv-x="1153" d="M-8 197q0 45 12 100q12 53 37 109q25 59 59 118q35 58 76 103q80 90 174 133q92 43 199 43q74 0 121 -19q47 -18 82 -63l299 61l-340 -925q-6 -23 -15.5 -43.5t-17.5 -40.5q-2 -6 -4 -11q-4 -6 -6 -10q-6 -16 -13.5 -31.5t-13.5 -31.5q0 -4 4 -6q2 -2 4 -2h2q8 2 19 18 q8 14 28 57q33 66 62 111q26 45 53 74q29 32 58.5 52.5t64.5 39.5q43 24 96 51q51 27 123 76l19 -23q-31 -24 -62 -45q-33 -22 -65 -45q-11 -6 -23 -12t-23 -12q-8 -5 -16 -9q-8 -6 -16 -10q-56 -27 -107 -63.5t-80 -92.5v-4q-2 -2 -4 -2q-8 -16 -14 -30q-8 -17 -16 -33 q-27 -53 -66 -96q-39 -45 -102 -45q-72 0 -121 47q-49 45 -49 114q0 27 8 58q6 28 16 59q4 16 10 33q7 14 13 28q6 21 14 39q8 19 14 37q-20 -12 -39 -20q-20 -10 -40 -19q-39 -14 -78 -18q-41 -6 -88 -6q-117 0 -183 55q-65 55 -65 152zM276 117q0 -33 20.5 -54.5 t51.5 -21.5q35 0 72 18q37 19 90 60l209 577q-19 33 -43 47q-25 15 -60 15q-36 0 -69 -19q-33 -18 -55 -53q-19 -27 -41.5 -70t-47.5 -96q-12 -31 -26 -61q-15 -33 -27 -66q-31 -82 -51 -155q-23 -76 -23 -121z" />
<glyph unicode="r" horiz-adv-x="784" d="M-23 123q0 22 9 55q6 31 18 70l168 479l326 66l-262 -725l-7 -23q0 -4 2 -6q2 -4 5 -4h4l2 2q8 4 20 29q10 24 37 90q35 94 82 184q47 88 96 160v4v2q6 110 76 202.5t154 96.5h4h2q35 0 59 -19q25 -18 25 -47v-8q-2 -6 -2 -10q-7 -14 -21 -29.5t-43 -40.5 q-45 -39 -88 -82q-45 -43 -88 -86l-2 -39q0 -75 41 -120t111 -45q20 0 45 4q22 4 61 16l8 -45q-16 -4 -28 -6q-15 -2 -27 -4h-12h-13q-86 0 -151 49q-66 47 -101 133l-6 -6q-4 -4 -6 -8q-31 -39 -65 -105q-37 -65 -105 -201q-6 -14 -12 -26t-10 -23q-19 -32 -41 -47 q-25 -16 -82 -16q-80 0 -131 37q-52 35 -52 92z" />
<glyph unicode="s" horiz-adv-x="760" d="M-35 117q0 8 2 14q0 6 2 12q8 13 25 29q14 14 47 39q31 25 59 53q29 27 58 53q10 13 22 25q10 10 21 20q-8 31 -13 54q-4 22 -6 45q-2 10 -2 20v23q0 121 72 215q72 92 203 92q47 0 73 -27q25 -26 25 -75q0 -45 -23 -93q-22 -47 -71 -104q16 -35 30 -76q15 -41 21 -80 q2 -14 4 -26v-29q0 -86 -65.5 -151.5t-194.5 -106.5q31 -8 53 -14q23 -6 45 -9h23q12 -2 24 -2q99 0 193 43q94 41 170 99v2l18 -27q-8 -8 -16 -14l-16 -12q-89 -62 -175 -93q-88 -32 -161 -32h-17t-16 2q-33 2 -70 10t-92 29q-16 -5 -33 -9q-18 -6 -34 -10l-50 -12 q-26 -8 -53 -10q-35 0 -51 26q-19 27 -25 58q-4 14 -4 26q-2 12 -2 23zM41 164l168 -103q4 2 8 7l4 4q19 20 25 40.5t6 47.5q0 28 -8 61t-31 94q-25 -24 -49 -47q-27 -22 -53 -45q-2 -2 -5.5 -4t-7.5 -4q-14 -14 -28 -27q-15 -12 -29 -24zM410 700q2 -32 10 -69 q6 -37 22 -86v2q27 33 41 61q15 29 21 58q0 8 2 16v16q0 37 -14 62q-15 22 -39 22q-19 0 -31 -18q-12 -21 -12 -51v-4v-9z" />
<glyph unicode="t" horiz-adv-x="647" d="M-23 150q0 16 4.5 35.5t10.5 39.5q0 4 2 8q0 5 2 9l143 409h-116l57 80h86l129 371l326 63l-154 -436h156l-58 -82h-125l-164 -467q-8 -22 -10 -39q-4 -16 -4 -32q0 -33 21 -52q20 -18 55 -18q29 0 59 8q29 6 62 16q33 13 67 29q33 17 64 35q14 8 31 16q14 9 26 17 l17 -23q-64 -45 -129 -76q-68 -32 -136 -51q-45 -10 -90 -16t-88 -6q-115 0 -178 43q-66 43 -66 119z" />
<glyph unicode="u" horiz-adv-x="1171" d="M-18 162q0 18 4 41q4 20 10 43l4 12q0 4 2 10l172 465l328 60l-213 -572q-15 -39 -21 -65.5t-6 -44.5q0 -29 21 -48q20 -18 53 -18q31 0 76 14q43 15 88 41q12 6 24 15q11 6 23 14l-4 31q0 16 6 41q6 22 20 61l172 467l330 62l-215 -568q-12 -35 -18 -61q-7 -29 -7 -49 q0 -31 21 -50q18 -18 49 -18q47 0 119 33q70 31 158 92l16 -23q-70 -53 -129 -84.5t-117 -48.5q-37 -12 -74.5 -16t-78.5 -4q-88 0 -146 24q-57 23 -92 74q-25 -14 -47.5 -26.5t-46.5 -20.5q-57 -25 -117 -35q-59 -12 -125 -12q-110 0 -174 45q-65 43 -65 119z" />
<glyph unicode="v" horiz-adv-x="1036" d="M-16 139q0 23 8 51q6 27 20 72l160 443l330 65l-215 -586q-11 -28 -15 -51q-6 -22 -6 -41q0 -35 23 -57q20 -23 53 -23q72 0 133 62q62 59 107 131q22 35 41 69q16 33 30 60q-39 69 -65 141q-29 70 -29 152q0 98 47 155q47 58 125 58q80 0 127 -60.5t47 -163.5 q0 -73 -28 -157q-31 -86 -91 -191q29 -16 55.5 -28.5t55.5 -20.5q27 -8 53 -12q27 -4 56 -4h8h6q8 0 16 2q8 0 21 2l-2 -53l-41 -2h-13q-14 0 -28 2q-21 2 -43 8q-41 10 -82 33q-41 20 -80 51q-4 -6 -8 -10q-6 -7 -10 -13q-109 -123 -228 -186q-121 -66 -297 -66 q-114 0 -178 45q-63 43 -63 123zM610 635q0 -25 2 -45q0 -23 4 -45q7 -39 19 -80q10 -43 31 -96v2q22 51 34 98q13 45 21 88q2 27 4 51q2 25 2 51q0 62 -14 99q-17 35 -45 35q-27 0 -41 -43q-17 -43 -17 -115z" />
<glyph unicode="w" horiz-adv-x="1610" d="M-14 143v13q0 4 2 10q0 16 6 35q4 16 8 37l176 473l332 63l-219 -584q-10 -30 -17 -49q-6 -18 -6 -32v-3v-4q0 -32 24.5 -55.5t61.5 -23.5q27 0 60 8q30 6 61 18q19 6 37 16.5t35 20.5l-6 47v2v4q0 17 6 36.5t20 55.5l176 476l328 61l-213 -569q-18 -52 -24 -78 q-9 -27 -9 -45q0 -29 21 -45q18 -19 51 -19q14 0 28.5 2t30.5 9q76 24 150 110q74 84 127 213q-47 72 -72 146q-24 73 -24 149q0 90 47 142.5t129 52.5q78 0 125 -60q47 -59 47 -155q0 -84 -29 -172q-31 -91 -90 -181q45 -28 100 -43q56 -16 117 -16l47 4l-20 -49l-39 -4h-8 q-50 0 -101 20q-55 21 -114 64q-109 -140 -238 -205q-131 -66 -295 -66q-92 0 -151 19q-62 18 -97 57q-100 -39 -178 -55q-80 -17 -151 -17q-125 0 -189 43q-63 41 -63 123zM1184 641q0 -70 16 -135q17 -66 49 -129v2q13 29 23 64.5t18 72.5q6 35 10 72q5 35 5 65 q0 66 -15 101q-14 32 -43 32q-28 0 -45 -38q-18 -41 -18 -107z" />
<glyph unicode="x" horiz-adv-x="1182" d="M-20 129q0 100 80.5 155.5t179.5 82.5q45 12 90 20q43 8 80 12q45 117 59 169.5t14 90.5q0 52 -32 82q-35 29 -95 29q-75 0 -145 -47q-72 -47 -133 -139v2l-43 30q61 89 149 138q86 49 187 49q100 0 172 -41q71 -43 104 -121q64 68 150 109q84 41 174 51q12 0 24 2h23 q76 0 117 -31t41 -88q0 -88 -80 -143q-82 -56 -178 -88q-54 -17 -103 -29t-86 -18q-4 -13 -8 -23q-6 -12 -12 -25q-21 -49 -37 -100q-19 -53 -19 -106q0 -54 45 -86q43 -35 113 -35q102 0 194.5 41t176.5 90l18 -25q-70 -47 -129 -76.5t-117 -46.5q-45 -14 -92 -18 q-47 -6 -98 -6q-119 0 -189 39q-69 39 -88 121q-55 -52 -106 -87q-53 -34 -105 -53q-30 -10 -61 -14q-33 -6 -63 -6q-76 0 -123 39q-49 39 -49 100zM82 80q0 -23 16 -39q17 -16 37 -16q60 0 107 57q47 55 82 123q22 43 38 82q17 37 29 63v2q-26 -10 -59 -26q-35 -17 -70 -37 q-67 -39 -123.5 -94.5t-56.5 -114.5zM748 446v3q75 28 137 67q61 37 102 76q35 33 55 63q19 31 19 60q0 22 -14 37q-17 14 -39 14q-52 0 -109 -64q-59 -63 -117 -182q-10 -18 -18 -37q-8 -18 -16 -37z" />
<glyph unicode="y" horiz-adv-x="1147" d="M-10 172q0 25 8 61q8 37 22 82l154 430l318 60l-207 -580q-9 -28 -15 -49.5t-6 -36.5q0 -26 21 -45q18 -20 45 -20q22 0 51 10t59 31q21 12 39 26q19 15 37 33l203 569l317 58l-284 -797q114 29 216.5 76t184.5 106l12 -34q-59 -41 -116 -70q-58 -31 -113 -55 q-49 -21 -96 -35q-49 -15 -101 -27q-20 -67 -45 -108q-26 -43 -69 -78q-52 -43 -117 -72q-68 -31 -137 -41q-17 -4 -35 -4q-19 -2 -37 -2q-70 0 -115 31q-47 28 -47 73q0 74 72 119t229 74l51 143q-63 -34 -116 -53q-56 -18 -107 -24q-18 -3 -35 -3q-16 -2 -34 -2 q-95 0 -150 43q-57 41 -57 111zM190 -238q0 -26 19 -43q18 -16 45 -16q55 0 88 43q31 41 53 90q8 21 17 41q6 19 14 35q0 2 2 4v2q-20 -4 -45 -8q-25 -6 -49 -14q-53 -17 -98 -48q-46 -30 -46 -86z" />
<glyph unicode="z" horiz-adv-x="909" d="M0 168q0 174 140.5 275.5t308.5 172.5q55 23 108 43q53 21 102 41q31 13 60 27q29 12 53 27q-14 -4 -24 -6q-13 -5 -23 -7h-25q-14 -2 -30 -2l-117 4q-27 -2 -59 -2q-33 -2 -66 -6q-72 -10 -133 -41q-64 -32 -80 -106q-2 -13 -4 -21t-4 -14t-4 -8q-4 -2 -8 -2l-9 2 q-45 12 -69.5 40.5t-24.5 67.5q0 72 65.5 121t159.5 49q48 0 93 -6q45 -8 88 -14q10 -2 18 -4t19 -4q34 -7 71 -11q35 -4 72 -4q27 0 51 4q25 2 49 9q21 6 29 10q6 2 10 2h2q8 0 12 -2q3 -4 3 -15q0 -14 -3 -26q-2 -14 -6 -29q-16 -63 -61 -123q-45 -59 -96 -108 q-23 -23 -45.5 -43.5t-42.5 -36.5q-27 -21 -84 -62q-60 -41 -125 -90q-19 -14 -37 -28q-19 -17 -37 -31q-61 -51 -107 -98q-45 -50 -45 -82q0 -2 2 -4q3 -4 5 -4q12 0 47 34q34 35 80 76q38 35 83 66q44 28 89 39q8 4 18 6h20q43 0 76 -21.5t66 -46.5q31 -24 63 -45 q33 -20 72 -20q33 0 65 14q31 12 60 29q6 2 12 6q4 4 10 6v2l17 -27q-25 -18 -49 -32q-25 -17 -50 -31q-67 -39 -131 -62q-63 -22 -100 -22t-68 14q-32 12 -63 31q-33 16 -63 31q-33 14 -70 14q-39 0 -66 -16q-26 -19 -49 -37l-6 -6q-4 -5 -8 -9q-19 -16 -37 -26 q-20 -13 -47 -13q-49 0 -86 57.5t-37 133.5z" />
<glyph unicode="{" horiz-adv-x="834" d="M-29 -211q0 68 27 145q25 78 57 158l4 8q0 2 2 6q35 84 64 166q29 80 29 150q0 41 -21 57q-22 17 -82 21l21 57q78 4 118 37q41 31 74 115l4 12q2 4 4 10q9 21 17 43q6 23 12 45q8 21 14 43q7 21 13 41q55 166 145 307q88 140 291 150h61q29 0 60 2h61h60l-17 -45 q-65 -2 -121 -25q-57 -22 -98 -78q-43 -53 -68 -120q-24 -70 -45 -144q-2 -8 -4 -14q-2 -8 -4 -14q-39 -134 -106 -248q-68 -117 -256 -146v2q80 -14 121 -49t41 -88q0 -59 -27 -135t-60 -158q-4 -8 -6 -16q-4 -8 -8 -18q-29 -70 -49 -140q-23 -71 -23 -131q0 -69 48 -90 q47 -20 104 -20l-16 -47h-62h-61q-33 0 -64 2q-30 0 -61 2q-103 6 -148 40.5t-45 106.5z" />
<glyph unicode="|" horiz-adv-x="1024" d="M397 -342v1706h232v-1706h-232z" />
<glyph unicode="}" horiz-adv-x="834" d="M-219 -362l14 47q115 0 176 57q62 57 103 156l4 8q0 4 2 6q18 47 32.5 92t26.5 88q43 137 109 244q65 104 250 135v2q-80 8 -121 43t-41 90q0 58 26 133q27 74 60 156q6 12 12 27q4 14 10 28q25 68 45 133q19 66 19 123q0 70 -47 89.5t-105 19.5l17 49q30 -2 63 -2h62h63 l62 -4q102 -6 147 -39q45 -35 45 -107q0 -79 -29 -159q-28 -80 -63 -160t-64 -158q-28 -80 -28 -160q0 -38 22 -55q23 -18 80 -22l-18 -54q-82 -8 -123 -41.5t-74 -123.5q-2 -3 -2 -5q-2 -4 -2 -6q-12 -32 -22 -67q-13 -35 -25 -70q0 -6 -2 -10l-4 -8q-53 -170 -137 -316 q-86 -145 -304 -155q-28 -2 -57 -2q-31 -2 -61 -2h-60h-61z" />
<glyph unicode="~" horiz-adv-x="1024" d="M340 1075q39 78 94 125q53 47 111 55h8h8q37 0 72 -12t67 -29q11 -4 21 -8l16 -8q25 -10 49 -16q25 -8 50 -8q28 0 51 16q20 16 37 49v2l34 -22q-51 -95 -106 -142q-57 -49 -117 -49q-18 0 -37.5 4t-40.5 10q-16 5 -32 13q-19 6 -37 14q-37 14 -70 27q-35 12 -63 12 q-23 0 -39 -8q-17 -10 -31 -33q-2 -4 -4 -6l-4 -8z" />
<glyph unicode="&#xa1;" horiz-adv-x="580" d="M-10 -307q45 37 78 80q32 41 55 82q14 30 21.5 59t7.5 57q0 39 -21 68q-20 27 -55 27l-27 -3l-18 35l305 172q31 -26 51 -49q21 -24 31 -47q8 -16 12 -31q2 -16 2 -32q0 -31 -14 -64q-15 -35 -37 -67q-35 -50 -86 -99t-107 -92q-49 -39 -96 -70q-49 -32 -84 -53z" />
<glyph unicode="&#xa2;" horiz-adv-x="743" d="M-270 -317q0 106 79.5 188t176.5 143q96 62 176 113t80 96q0 23 -17.5 37t-44.5 14q-39 0 -82 -22q-43 -25 -88 -72l-22 13l37 100q43 10 74.5 16t60.5 8q12 2 26 2h27q115 0 180 -53q66 -55 66 -149q0 -99 -82 -174q-84 -76 -182 -142q-48 -28 -91 -57t-79 -57 q-41 -33 -68 -66q-27 -35 -27 -72q0 -32 25 -51.5t63 -19.5q17 0 33 4q17 2 33 8q86 29 160 115q73 84 94 180l4 20q2 11 2 21l45 2l4 -74q0 -149 -96 -241q-98 -93 -256 -93q-137 0 -223 74q-88 74 -88 189zM137 637q0 70 49 119q47 47 117 47t119 -47q49 -49 49 -119 t-49 -119t-119 -49v2h-4q-68 0 -113 47q-49 49 -49 119z" />
<glyph unicode="&#xa3;" horiz-adv-x="1153" d="M61 180q21 23 43 47q23 23 48 45q34 33 77 68q41 35 97 74l-199 262h319l175 -252q-13 -10 -25 -18q-14 -11 -29 -21q-41 -31 -80 -68q-41 -36 -75 -75q-15 -17 -27 -31q-12 -16 -23 -33v2h-301zM526 180q21 23 43 47q23 23 47 45q35 33 78 68q41 35 97 74l-199 262h319 l174 -252q-14 -12 -30.5 -23.5t-32.5 -23.5q-37 -29 -74 -64q-39 -37 -69 -71q-15 -17 -27 -31q-14 -16 -25 -33v2h-301z" />
<glyph unicode="&#xa4;" horiz-adv-x="1022" d="M233 803q46 35 78 78q33 41 56 82q14 30 22 59q6 29 6 57q0 41 -20 70q-21 27 -56 27l-26 -2l-19 34l306 172q30 -26 50.5 -49.5t31.5 -46.5q8 -16 12 -31q2 -16 2 -32q0 -31 -12 -64q-15 -35 -39 -67q-35 -52 -86.5 -101t-106.5 -92q-51 -39 -98 -70.5t-82 -52.5z M674 803q45 35 80 78q32 41 53 82q16 30 23.5 59t7.5 57q0 41 -21 70q-22 27 -57 27l-27 -2l-18 34l305 172q31 -26 51 -49q21 -24 31 -47q8 -16 12 -31q2 -16 2 -32q0 -31 -12 -64q-14 -33 -37 -65q-35 -52 -86 -101q-53 -51 -109 -94q-49 -39 -96 -70.5t-82 -52.5z" />
<glyph unicode="&#xa5;" horiz-adv-x="1823" d="M106 152q0 69 50 118q49 47 118 47v2q68 -2 117 -51t49 -116q0 -70 -47 -117q-49 -49 -119 -49q-69 0 -118 49q-50 47 -50 117zM715 152q0 69 49 118q47 47 117 47v2q69 -2 118 -51q50 -49 50 -116q0 -70 -50 -117q-49 -49 -118 -49q-70 0 -117 49q-49 47 -49 117z M1321 152q0 69 49 118q49 47 119 47v2q70 -2 119 -51q47 -49 47 -116q0 -70 -47 -117q-49 -49 -119 -49t-119 49q-49 47 -49 117z" />
<glyph unicode="&#xa7;" horiz-adv-x="2343" d="M139 752q0 192 119 335q117 142 277 142q116 0 186 -72q70 -74 70 -194v2v-31q-3 -14 -5 -29q-16 -155 -122 -284q-109 -132 -277 -132q-119 0 -182 70q-66 68 -66 193zM276 2l1037 1235h114l-1040 -1237zM305 602q0 -33 19 -53q18 -23 47 -23v2h4q51 0 98 90 q49 93 84 203q31 94 49 176q19 82 19 109q0 41 -15.5 62.5t-46.5 21.5q-14 0 -28 -8q-15 -11 -31 -27q-37 -41 -72 -117q-37 -75 -65 -159q-27 -84 -43 -160q-19 -76 -19 -117zM909 262q0 193 119 334q117 141 275 141q118 0 188 -71q70 -74 70 -195v2v-35q-2 -16 -5 -32 q-20 -152 -126 -279q-109 -127 -273 -127q-119 0 -182 68q-66 67 -66 194zM1073 111q0 -33 21 -54q18 -20 47 -20v2h4q51 0 100 92t86 203q29 90 47 170q17 78 17 110q0 41 -17 64q-16 20 -45 20q-24 0 -45 -14q-22 -16 -43 -49q-4 -8 -8 -17l-12 -20q-21 -41 -39 -86 q-21 -45 -37 -92q-35 -90 -55 -174q-21 -86 -21 -135zM1626 262q0 193 119 334q117 141 276 141q117 0 187 -71q69 -74 69 -195v2v-31l-4 -28q-16 -156 -123.5 -285t-275.5 -129q-119 0 -182 68q-66 67 -66 194zM1792 111q0 -33 20 -54q19 -20 46 -20v2h4q51 0 100 90 q49 92 84 203q31 92 49 172q16 80 16 110q0 41 -14 64q-16 20 -47 20q-12 0 -25 -6q-14 -8 -28 -20q-39 -39 -76 -119q-39 -80 -68 -166q-28 -84 -45 -160q-16 -75 -16 -116z" />
<glyph unicode="&#xa8;" />
<glyph unicode="&#xa9;" horiz-adv-x="1128" d="M39 254l168 166q-25 45 -39 82q-16 37 -25 73q-6 23 -8 47.5t-2 51.5q0 26 2 51q2 23 8 47q9 39 25 80q14 39 39 86l-168 170l94 96l170 -170q53 33 121 53q65 19 135 19q23 0 43 -2q21 -2 43 -6q41 -8 84 -25.5t88 -44.5l176 178l97 -94l-179 -178q21 -41 35 -74 q15 -33 23 -65q6 -29 10 -56q2 -28 2 -59q0 -39 -4 -72q-4 -35 -14 -67q-9 -29 -21 -56q-14 -28 -33 -59l176 -172l-96 -96l-170 172q-41 -27 -78 -41q-36 -17 -71 -27q-27 -6 -54 -8q-26 -4 -55 -4q-39 0 -74 6q-34 4 -67 14q-29 11 -55 25q-29 12 -60 31l-170 -168z M319 678q0 -100 72 -170q72 -72 172 -72q99 0 170 72q72 70 72 170v2q0 98 -70 170q-71 70 -174 70q-100 0 -170 -70q-72 -72 -72 -172z" />
<glyph unicode="&#xaa;" horiz-adv-x="987" d="M-6 215q0 27 4 53q2 27 6 54q31 127 119 243q88 117 209 178q14 9 29.5 15t29.5 12q33 12 64 21q28 8 47 8q10 0 16 -4q4 -4 4 -13q0 -4 -2 -12q-4 -8 -14 -20q-6 -11 -12 -21q-9 -12 -17 -22q-41 -68 -80 -148q-41 -82 -69 -164q-21 -59 -35 -119q-14 -59 -17 -112 l277 319q-4 9 -8 19t-6 18q-11 31 -15 62q-6 28 -6 61q0 102 45 164q43 59 117 59q43 0 78 -18q33 -21 61 -62l107 125l39 -32l-121 -138q4 -20 8 -34q4 -17 6 -29q2 -14 4 -29v-35q0 -57 -10 -112.5t-33 -110.5q-6 -18 -14 -37q-8 -18 -19 -37q19 -6 34.5 -10t29.5 -8 q12 -2 27 -2q12 -2 28 -2h21q10 0 20 2q21 0 44.5 4t51.5 12l9 -32q-27 -9 -47 -11q-21 -4 -41 -6q-11 -2 -21 -2h-24q-21 0 -37 2q-19 0 -35 4q-19 2 -35 8q-18 5 -39 11q-88 -158 -201.5 -230.5t-269.5 -72.5h-27q-14 0 -28.5 2t-26.5 4q-14 0 -29 4l-73 -84l-37 31l57 65 q-74 23 -108 76q-35 51 -35 133zM279 96q10 -37 30 -53q19 -18 49 -18q66 0 121 59q53 57 90 127q23 39 39 76q15 35 27 61q-12 14 -21.5 26.5t-15.5 22.5q-2 2 -4 5.5t-4 7.5q-4 4 -6 10q-4 6 -9 12v2zM563 690q0 -22 4 -51q4 -31 11 -59q4 -15 8 -27q2 -14 6 -27v2l88 103 v6q0 84 -14 133q-17 47 -43 47q-27 0 -43 -35q-17 -34 -17 -92zM610 475q4 -12 8 -18q5 -8 7 -15q2 -4 4 -6q0 -4 2 -6l8 -12q4 -8 10 -17q4 15 6 29t4 29v8t3 8q2 19 6 37q2 16 8 35v2z" />
<glyph unicode="&#xab;" horiz-adv-x="1337" d="M-41 125q0 47 39 84q37 35 113 55q22 111 48.5 220.5t53.5 217.5q59 220 137 355q78 133 195 215q47 33 102 58.5t113 41.5q37 10 76 17q36 4 71 4q109 0 171.5 -45t62.5 -123q0 -131 -101.5 -234.5t-222.5 -177.5q-47 -29 -94 -53.5t-88 -44.5q-39 -19 -51 -27 q-15 -10 -15 -14t4 -6q5 -2 9 -2q49 8 98 14t100 6q174 0 277 -72q102 -71 102 -196v-27q-2 -14 -4 -29q-4 -22 -12 -45q-10 -24 -27 -55q62 -18 123 -39q59 -22 117 -47v2l-10 -31q-25 7 -48.5 15t-48.5 16l-51 17q-27 6 -55 14q-13 4 -27 8q-14 2 -29 6 q-75 -102 -194 -153q-121 -52 -252 -70q-57 -8 -115 -10q-59 -4 -112 -4l-84 2q-2 -8 -4 -17q-4 -10 -7 -20q-34 -103 -102 -189q-70 -88 -194 -88q-11 0 -19 7q-8 4 -8 12q10 31 20 78q11 47 21 96q6 41 14 82q6 39 12 67q-53 17 -77 43q-27 27 -27 66zM23 121 q0 -27 12 -43.5t35 -24.5l34 178q-38 -16 -59.5 -43.5t-21.5 -66.5zM340 16l63 -2h9q137 0 239 54q107 55 170 184q-16 4 -33 8q-18 2 -34 4q-60 8 -119 12q-62 5 -127 5h-107zM412 315q32 2 55 4h41h18h19q51 0 98 -2q47 -4 92 -8q25 -4 50.5 -8t52.5 -10q10 33 16 57 q4 23 6 45v13v12q0 96 -57 155q-58 60 -154 60l-76 2h-6q-16 0 -26 8q-13 8 -13 25q0 20 60 92q57 69 127 162q26 34 53 73t51 76q35 62 60 121q22 57 22 108q0 23 -12 37q-15 15 -37 15q-72 0 -131 -92q-62 -93 -107 -203q-28 -72 -47 -137q-20 -68 -30 -109z" />
<glyph unicode="&#xac;" />
<glyph unicode="&#xad;" horiz-adv-x="451" d="M-106 344l96 131h399l-94 -131h-401z" />
<glyph unicode="&#xae;" horiz-adv-x="438" d="M240 817l92 547h321l-286 -547h-127z" />
<glyph unicode="&#xb0;" horiz-adv-x="1128" d="M-25 57q0 45 31 78q29 33 70 33q18 0 59 -14.5t86 -30.5q4 -2 8 -2q4 -2 9 -4q34 -15 67 -27q33 -14 51 -20q25 57 39 108q15 49 21 96q2 19 4 37v35q0 39 -4 70q-6 28 -17 57q-6 12 -12 24.5t-14 24.5q94 56 157 148q64 92 107 192q4 12 10 27q6 12 10 26 q-30 -4 -61 -16t-61 -27q-37 -16 -74 -30.5t-74 -14.5q-45 0 -74 35q-30 33 -30 80q0 45 28 80q29 33 68 33q24 0 67 -17q43 -16 93 -34q2 -3 6 -3q2 -2 4 -2q33 -14 65 -24q31 -12 58 -19q4 25 8 43q2 17 4 31v17v18q-2 20 -4 40.5t-4 39.5v8v6q-4 23 -6 46.5t-2 47.5 q0 60 34 95q35 34 93 34q59 0 102 -34q41 -37 41 -88q0 -41 -39 -84q-39 -46 -86 -95q-27 -28 -51 -59q-27 -31 -45 -64q20 5 43 13q20 6 41 16q10 2 20 6q8 4 17 8q45 19 84 34.5t63 15.5q41 0 70 -29q26 -31 26 -78q0 -49 -26 -84q-29 -35 -70 -35q-37 0 -74 14.5 t-75 30.5q-35 17 -70 29t-70 16q-12 -41 -20 -77.5t-12 -71.5q-2 -18 -2 -35q-3 -18 -3 -37q0 -35 4.5 -63.5t12.5 -57.5q4 -16 12 -32q6 -19 17 -37v2q-105 -62 -177 -162q-71 -102 -127 -270q23 6 53.5 18t61.5 25l8 4q4 0 6 2q43 16 82 31q39 12 64 12q43 0 72 -31 q26 -33 26 -80t-29 -80q-30 -32 -71 -32q-29 0 -68 16q-41 14 -82 33q-4 0 -6 2q-2 0 -6 2q-31 10 -61 22q-33 13 -60 17q-4 -12 -4 -21q-2 -10 -4 -16q-2 -14 -2 -29v-39q2 -24 4 -49q0 -26 2 -51t4 -49q0 -27 2 -51q0 -49 -35 -80q-34 -33 -88 -33q-57 0 -98 37 q-43 37 -43 86q0 29 33 72t71 88q3 2 5 4l4 4q30 35 59 66.5t43 58.5q-20 -4 -53 -17q-35 -12 -72 -24h-4l-2 -2q-47 -19 -86 -33q-41 -14 -53 -14q-39 0 -68 34q-31 35 -31 80z" />
<glyph unicode="&#xb1;" />
<glyph unicode="&#xb4;" />
<glyph unicode="&#xb5;" />
<glyph unicode="&#xb6;" />
<glyph unicode="&#xb8;" />
<glyph unicode="&#xba;" horiz-adv-x="1343" d="M-6 199q0 45 10 96q10 49 31 102q28 78 75.5 154t102.5 127q66 59 156 94q88 33 182 33q82 0 135 -29q53 -28 80 -88q96 60 174 87.5t154 27.5q77 0 123 -37q45 -39 45 -104q0 -127 -95.5 -213.5t-210.5 -139.5q-36 -16 -71 -30q-37 -15 -70 -25q-2 -14 -2 -23 q-2 -10 -4 -18v-8v-8q0 -76 47 -119q45 -43 125 -43q78 0 168 31q88 30 197 94v2l16 -31q-100 -59 -182 -90q-84 -33 -164 -45q-29 -4 -58.5 -6t-58.5 -2q-98 0 -172 30q-76 29 -123 88q-37 -26 -72 -47q-36 -20 -71 -34q-47 -19 -94.5 -27t-100.5 -8q-125 0 -198 57 q-74 55 -74 152zM279 123q0 -39 18 -64.5t49 -25.5v2h4q15 0 31 8q16 10 33 29q43 43 84 127q41 82 73 172q35 96 58 184q20 86 20 127t-18 66q-19 22 -49 22h-4h-9q-61 -12 -120.5 -115.5t-102.5 -228.5q-31 -90 -49 -174t-18 -129zM819 281v2q29 16 64 46.5t71 69.5 q29 31 58 64q26 33 51 65q39 54 63 105q25 51 25 90q0 22 -10 35q-13 12 -33 12q-59 0 -115 -82q-55 -82 -96 -180q-29 -68 -47 -129q-21 -62 -31 -98z" />
<glyph unicode="&#xbb;" />
<glyph unicode="&#xbf;" horiz-adv-x="1075" d="M14 -307q45 37 78 80q33 41 55 82q15 30 23 59q6 29 6 57q0 39 -20 68q-21 27 -56 27l-26 -3l-19 35l305 172q31 -26 51.5 -49.5t30.5 -46.5q9 -16 13 -31q2 -16 2 -32q0 -31 -15 -64q-14 -35 -36 -67q-35 -50 -87 -99q-51 -49 -106 -92q-49 -39 -96 -70q-49 -32 -84 -53 zM455 -307q45 37 80 80q32 41 53 82q16 30 24 59q6 29 6 57q0 39 -20 68q-23 27 -57 27l-27 -3l-18 35l305 172q30 -26 50.5 -49.5t31.5 -46.5q8 -16 12 -31q2 -16 2 -32q0 -31 -12 -64q-15 -35 -39 -65q-35 -52 -86 -101t-105 -92q-51 -39 -98 -70.5t-82 -52.5z" />
<glyph unicode="&#xc0;" horiz-adv-x="606" d="M-248 -573l441 923l43 -4l-76 -854zM100 637q0 70 50 119q47 47 116 47q72 0 121 -47q47 -49 47 -119t-49 -119t-119 -49v2h-4q-65 0 -112 47q-50 49 -50 119z" />
<glyph unicode="&#xc1;" />
<glyph unicode="&#xc2;" horiz-adv-x="1128" d="M109 494q0 45 12 94t35 98q32 80 88 156q55 73 123 129q4 4 10 8q4 4 10 8q78 60 162 88q84 29 184 29h8h4h15q6 0 16 -2l43 119l76 2l-47 -127q102 -25 151 -68q50 -45 50 -110q0 -9 -5 -29q-4 -21 -12 -43q-8 -27 -22 -49q-17 -25 -35 -25q-8 0 -12 8q-7 8 -9 19 q-8 67 -39 129q-30 59 -92 96l-256 -694q111 2 215 39q103 34 201 80l16 -23q-102 -61 -215 -94q-114 -35 -231 -43v2l-55 -150h-76l53 150q-186 2 -276 53q-90 49 -90 150zM410 453q0 -45 19.5 -74t64.5 -45l260 710q-97 -10 -172.5 -114.5t-120.5 -227.5q-25 -69 -37 -135 q-14 -65 -14 -114z" />
<glyph unicode="&#xc3;" horiz-adv-x="2134" d="M-47 211v16q0 9 2 17q12 123 105.5 232.5t228.5 154.5q65 22 133 35q67 10 137 14q27 0 55 2h54q32 70 69 141q35 72 74 144q63 118 121 200q55 80 110 129q50 43 101 64q49 20 102 20q82 0 127 -41q43 -41 43 -116v-29q-2 -16 -6 -31q-2 -14 -6 -28q-4 -17 -10 -31 l-170 -430q57 6 115.5 10t115.5 4q39 0 57 8q17 6 17 21q0 4 -2 14q-4 10 -8 23q-5 10 -9 22q-6 10 -10 21q-22 55 -39 112q-16 56 -16 115q0 162 104 260q103 96 271 96q133 0 219 -61q84 -62 84 -158q0 -106 -94 -200q-97 -95 -259 -148v2l-18 27q21 14 43 35q23 18 47 38 q60 58 113 127q53 70 65 144q2 8 4 18v19q0 41 -20 67q-23 25 -55 25q-62 0 -117 -84q-57 -84 -100 -182q-29 -66 -50 -127q-20 -62 -32 -99q-9 -26 -15 -47q-8 -20 -16 -39q-16 -39 -35.5 -57t-50.5 -27l-98 -24q-9 -4 -17 -6q-8 -5 -16 -7q-121 -43 -221 -141 q-103 -98 -103 -233q0 -107 68 -170q65 -64 178 -64q51 0 115 19q63 16 129 47q100 47 192 114q90 68 144 140q24 32 39 65q12 33 12 64q0 26 -10.5 44.5t-32.5 33.5l18 28q58 -37 88 -84q31 -49 31 -102v-8v-11q-8 -73 -59 -141q-54 -70 -142 -121q-110 -65 -235 -94 q-127 -31 -285 -31q-258 0 -399 80q-144 80 -144 230q0 69 22.5 136.5t49.5 131.5q10 22 18 43q9 20 17 41l-166 2q-29 -55 -61 -125q-35 -72 -74 -145q-78 -144 -182.5 -261.5t-247.5 -117.5q-92 0 -150 63q-57 62 -57 162zM193 248q0 -62 26 -94q27 -35 76 -35q18 0 39 10 q18 8 37 25q45 36 88 102q41 66 78 137q38 72 67 138.5t45 103.5v2l-37 2q-163 -2 -290 -109q-129 -108 -129 -282zM752 682l155 2l240 621l10 26l-4 4h-4h-4t-4 -2q-6 0 -15 -6q-8 -8 -20 -22q-96 -105 -168 -232t-131 -260q-14 -33 -27.5 -65.5t-27.5 -65.5z" />
<glyph unicode="&#xc4;" />
<glyph unicode="&#xc5;" horiz-adv-x="1440" d="M-106 344l96 131h1388l-94 -131h-1390z" />
<glyph unicode="&#xc6;" />
<glyph unicode="&#xc7;" horiz-adv-x="608" d="M59 426q0 70 50 119q49 47 118 47v2q68 -2 117 -51t49 -117q0 -70 -47 -119q-49 -49 -119 -49q-69 0 -118.5 49t-49.5 119z" />
<glyph unicode="&#xc8;" horiz-adv-x="1128" d="M-141 137q0 101 90 166q88 66 225 66h6h6q43 0 93 -9q49 -8 131 -24q-2 65 -21 141q-20 74 -57 162l-260 2l34 64l207 -3q-8 29 -12 51.5t-6 43.5q-2 16 -2 30q-2 15 -2 33q0 240 155 367q154 125 381 125q23 0 46.5 -2t46.5 -7q102 -20 188 -86q86 -65 86 -180 q0 -51 -35 -84q-37 -35 -92 -35q-10 0 -18.5 4.5t-8.5 10.5l4 16q3 6 5 15q2 10 4 22t2 25q0 102 -76 178t-180 76q-107 0 -158 -74q-53 -76 -53 -176q0 -88 16 -176q14 -91 35 -177l287 -2l-41 -61h-238q0 -94 -41 -172t-102 -143q104 -23 184 -33q80 -12 137 -12 q33 0 64 6q29 6 59 12q4 2 10 4q5 0 11 2q12 2 25.5 6t25.5 6q6 0 10 -2q2 -4 2 -8q0 -6 -31 -55q-30 -51 -71 -109q-10 -14 -21.5 -28.5t-21.5 -28.5q-37 -43 -70 -74q-33 -30 -53 -30h-4q-37 0 -84 10q-47 8 -144 30l-215 56l-41 10q-59 -37 -102 -55q-45 -21 -86 -29 q-16 -2 -31 -2h-32q-78 0 -121 37q-45 35 -45 100zM-102 104q0 -26 43 -43.5t104 -17.5q51 0 96 12q43 11 86 37v2q-43 12 -88 27q-45 12 -92 20q-22 4 -43 6q-22 3 -45 3q-29 0 -45 -13q-16 -12 -16 -33z" />
<glyph unicode="&#xc9;" />
<glyph unicode="&#xca;" horiz-adv-x="270" d="M-403 2l1038 1176h113l-1037 -1178z" />
<glyph unicode="&#xcb;" horiz-adv-x="1128" d="M166 559l35 64l241 -2q4 8 6.5 18t4.5 20q2 11 4 23q0 10 2 20q0 5 2 11v8l-238 2l35 63h207l22 267q0 6 2 16v16q0 17 3 33v27q0 74 -27 117q-29 43 -76 43q-33 0 -53 -31q-23 -33 -23 -86v-8v-9q2 -16 5.5 -34.5t9.5 -44.5q-39 24 -64.5 53t-32.5 59v13q-2 4 -2 8 q0 53 45 90q43 35 109 35q158 0 252 -109q94 -108 94 -260l-2 -51l-8 -207l203 324q71 112 161 206q91 95 240 95q35 0 51 -5q17 -6 17 -18l-19 -53q-4 -12 -8 -19q-6 -8 -12 -12h-4q-2 -2 -5 -2q-6 4 -12 6q-8 2 -14 6q-12 4 -25 9q-14 2 -28 2q-78 0 -136 -50 q-57 -49 -98 -112l-192 -316l239 -2l-41 -61h-237q-4 -8 -8.5 -14.5t-6.5 -12.5q-12 -18 -20 -37q-10 -18 -16 -39h272l-41 -61h-254l-186 -514l-338 -70l217 586h-252z" />
<glyph unicode="&#xcc;" />
<glyph unicode="&#xcd;" />
<glyph unicode="&#xce;" horiz-adv-x="1128" d="M-281 -199q0 54 43 93q43 36 103 36q14 0 24 -4q11 -6 11 -14q0 -12 -9.5 -23.5t-21.5 -25.5q-10 -15 -19.5 -33t-9.5 -41q0 -41 25 -65q24 -27 65 -27q119 0 214.5 176t162.5 389q49 158 84 301q33 142 51 213l-241 2l22 64h240l2 4v4q6 16 12 35q4 16 10 35 q33 106 82 205.5t144 164.5q69 49 153 76q84 25 174 25q113 0 182.5 -41t69.5 -109q0 -47 -39 -82q-39 -37 -84 -49q-10 -4 -20 -4q-10 -2 -21 -2q-8 0 -14 4q-8 4 -8 10q0 10 6 25q6 12 14 26q7 17 13 33q6 17 6 35q0 47 -27 76q-26 28 -69 28q-93 0 -166 -122 q-76 -123 -138 -377h293l-30 -64h-283q-27 -96 -59 -219q-35 -125 -80 -254q-86 -248 -230.5 -452.5t-386.5 -204.5q-114 0 -182 41t-68 112z" />
<glyph unicode="&#xcf;" horiz-adv-x="1128" d="M-43 -182q0 39 23 71q20 31 47 54l8 2h2v-2q2 0 4 -2v-7v-6q-2 -4 -4 -6q-4 -12 -6 -24q-4 -13 -4 -27q0 -82 61 -139q62 -58 145 -58q72 0 129 45q58 43 58 101q0 69 -43 149q-45 80 -98 164q-11 14 -19 31q-10 16 -20 31q-41 69 -72 136.5t-31 131.5q0 14 2 29l4 24 q23 90 113 176q90 84 240 158q-21 45 -31 80q-12 35 -16 67q-3 15 -3 29q-2 14 -2 31q0 139 113 231q111 90 283 90q121 0 191.5 -51t70.5 -139q0 -53 -29 -94t-78 -54q9 21 13 37q4 17 6 31q2 8 2 16v19q0 86 -47 143t-119 57q-64 0 -107 -45q-45 -47 -45 -116q0 -21 4 -41 q5 -23 11 -43q16 -54 49 -107t67 -108q50 -76 91 -158t41 -172q0 -104 -84 -203q-86 -98 -256 -194v2q22 -41 35.5 -72t21.5 -59q4 -19 6 -35.5t2 -36.5q0 -150 -119 -240q-121 -90 -321 -90q-131 0 -209 53q-80 52 -80 140zM367 635q0 -29 12 -64q12 -34 39 -79l184 -306 q6 2 14 9q7 4 13 10q41 31 76 71q32 39 32 93q0 24 -6 55q-8 29 -22 59q-4 11 -9.5 21t-11.5 20l-174 299q-49 -28 -82 -63q-35 -35 -51 -70q-8 -14 -10 -26q-4 -15 -4 -29z" />
<glyph unicode="&#xd1;" horiz-adv-x="1128" d="M162 772q0 45 14 100q12 54 35 109q33 76 82 149q47 72 102 123q4 4 8 9q5 4 9 6q73 63 157 88q84 22 226 22q73 0 134.5 -6t119.5 -18q12 -4 24 -6q10 -2 23 -7l114 15l-596 -1669l-155 -62l579 1651q-8 2 -14 4q-8 2 -14 4t-11.5 4t-11.5 2l-16 4t-21 4l-575 -1611 l-156 -62l338 961q-25 -11 -45 -15t-41 -6h-27q-14 -2 -28 -2q-119 0 -187 55q-67 56 -67 154zM408 707q0 -33 26 -56q25 -22 64 -22h4h2q16 0 33 6q16 4 43 14v2l235 668h-35h-26q-52 0 -82 -14q-33 -17 -60 -54q-16 -24 -37.5 -65t-44.5 -90q-14 -29 -26 -60 q-15 -32 -27 -65q-28 -78 -49 -150q-20 -71 -20 -114z" />
<glyph unicode="&#xd2;" horiz-adv-x="1466" d="M-127 92q0 117 145 201q146 82 351 82l114 -4q11 55 21 114q8 58 16 115l-252 -115l15 107l249 125l7 20q2 8 6 19q2 8 4 18q63 221 241.5 405.5t423.5 184.5q127 0 197 -72.5t70 -206.5q0 -196 -150 -346q-151 -149 -334 -221q-36 -16 -73 -26.5t-72 -18.5l-23 47 q74 8 131.5 35t110.5 74q12 10 27 22q12 13 24 27q49 53 92 116.5t76 129.5q33 69 53 137q19 65 19 121q0 63 -33 102q-35 37 -94 37q-107 0 -168 -86t-98 -188q-17 -50 -29 -97t-22 -84l235 117l-10 -106l-254 -119q-25 -117 -84 -219q-62 -105 -156 -191q113 -16 223 -47 q109 -33 215 -72q19 -6 39 -14q21 -10 40.5 -18.5t37.5 -14.5q17 -8 35 -14q33 -10 64 -16q28 -9 57 -9h8h8q23 2 49 13q25 8 62 26l18 -28q-110 -91 -215 -140q-104 -49 -188 -49q-64 0 -152 17q-90 14 -184 36q-45 11 -90 23t-88 27q-45 14 -86 28q-43 13 -76 25 q-70 -51 -131 -84q-62 -35 -121 -49q-35 -11 -68.5 -15t-68.5 -4q-76 0 -119 33q-45 33 -45 90zM-86 80q0 -27 31 -39q28 -14 90 -14q102 0 182 24q80 25 148 76v2q-39 6 -86 12q-50 4 -99 6q-18 3 -37 3h-34q-101 0 -148 -17.5t-47 -52.5z" />
<glyph unicode="&#xd3;" />
<glyph unicode="&#xd4;" />
<glyph unicode="&#xd5;" horiz-adv-x="1487" d="M55 475q0 270 183 498q180 227 497 356l17 -24q-109 -93 -191 -248q-84 -158 -133 -330q-31 -106 -47 -211q-16 -104 -16 -192v-5v-6v-16t2 -18l829 966q-14 47 -45 76q-33 27 -74 27q-108 0 -188 -109q-82 -109 -127 -240q-25 -73 -37 -141q-14 -67 -14 -119l-41 -2 q-4 19 -6 35q-5 16 -5 33q-2 12 -2 26v27q0 223 121 379q121 154 295 154q25 0 51 -2q25 -5 49.5 -13t49 -18t49.5 -27l135 158l43 -39l-131 -152q80 -71 129 -194q47 -123 47 -256q0 -342 -258 -615q-260 -274 -606 -274q-109 0 -203 25q-96 24 -172 73l-111 -127l-45 41 l109 125q-74 64 -113 162q-41 98 -41 217zM379 203q29 -103 90 -152q59 -51 152 -51q57 0 104 16q47 17 92 56q6 4 12 10q5 4 9 8q90 88 168 246q77 156 129 326q36 124 59 245q20 121 20 213v13v8v16q-2 6 -2 14v3z" />
<glyph unicode="&#xd6;" />
<glyph unicode="&#xd8;" />
<glyph unicode="&#xd9;" horiz-adv-x="688" d="M61 180q21 23 43 47q23 23 48 45q34 33 77 68q41 35 97 74l-199 262h319l175 -252q-13 -10 -25 -18q-14 -11 -29 -21q-41 -31 -80 -68q-41 -36 -75 -75q-15 -17 -27 -31q-12 -16 -23 -33v2h-301z" />
<glyph unicode="&#xda;" />
<glyph unicode="&#xdb;" horiz-adv-x="1397" d="M-12 225q0 27 6 76q6 47 14 100q19 76 51 140q31 61 80 61q43 0 60 -31q14 -30 18 -65q2 -10 4 -19v-20q2 -2 2 -4v-8q6 18 13 37l8 36q4 11 8 21q2 10 4 18q33 115 72 228q37 110 90 217q16 30 41 71q22 41 53 82q49 68 110.5 128.5t125.5 84.5q14 6 30 11q17 2 31 2 q53 0 79.5 -45.5t26.5 -137.5q0 -51 -10 -110q-10 -62 -28 -123q-11 -31 -21 -62q-12 -30 -25 -61q-53 -117 -133 -211q-82 -94 -170 -182l-8 -8q-6 -7 -10 -11l-107 -379h21q72 0 137 13q76 14 152 43q12 4 24 10q13 4 25 10q0 13 2 23q0 8 2 18t6 22.5t10 28.5l183 508 l327 68l-219 -617q-8 -22 -12 -41.5t-4 -37.5q0 -33 22 -52q21 -18 60 -18q55 0 104 27q49 24 94 57q17 10 33 20q14 11 31 21l18 -19q-6 -8 -12 -12q-6 -6 -12 -10q-86 -70 -174 -100q-91 -31 -195 -31q-106 0 -170 26q-63 25 -86 82v2q-90 -43 -182 -61q-94 -18 -195 -18 l-55 -187q-2 -8 -4 -18q-2 -13 -4 -25v-12q-2 -6 -4 -14q-4 -29 -15 -54q-10 -26 -35 -32q-20 -3 -40 -5q-23 -2 -43 -4q-23 -2 -43.5 -4t-43.5 -4h-10h-12q-23 2 -41 10q-18 9 -18 37q4 15 6 29q2 12 6 27q2 14 6 28q2 12 4 27l64 233q-72 23 -97.5 60t-25.5 110zM78 170 q0 -33 10 -49q8 -19 35 -35v2l63 248q2 2 4 6v8q9 29 13 56q4 24 4 36q0 19 -6 29q-8 10 -21 10q-22 0 -43 -51q-22 -53 -37 -115q-10 -43 -16 -82.5t-6 -62.5zM532 522q89 107 152 232q61 123 115 295q28 96 43 155q12 58 12 96q0 23 -8 37q-10 15 -23 15q-4 0 -10 -4.5 t-12 -10.5q-8 -8 -15 -18q-6 -12 -12 -27q-31 -71 -53 -145q-25 -76 -47 -152q-2 -10 -4 -18q-4 -10 -6 -21q-9 -28 -17 -55q-8 -29 -16 -57zM1075 1096q0 71 51 123q52 49 121 49v2q72 -2 123 -51q49 -52 49 -123q0 -70 -49 -119q-51 -51 -123 -51q-69 0 -121 51 q-51 49 -51 119z" />
<glyph unicode="&#xdc;" />
<glyph unicode="&#xdf;" />
<glyph unicode="&#xe0;" horiz-adv-x="1024" d="M350 1112q0 53 39 90q37 37 90 37v2q53 -2 90 -39t37 -90t-37 -90q-37 -39 -90 -39t-90 39q-39 37 -39 90zM688 1112q0 53 39 90t90 37v2q53 -2 92 -39q37 -37 37 -90t-37 -90q-39 -39 -92 -39q-51 0 -90 39q-39 37 -39 90z" />
<glyph unicode="&#xe1;" horiz-adv-x="1024" d="M340 1075q39 78 94 125q53 47 111 55h8h8q37 0 72 -12t67 -29q11 -4 21 -8l16 -8q25 -10 49 -16q25 -8 50 -8q28 0 51 16q20 16 37 49v2l34 -22q-51 -95 -106 -142q-57 -49 -117 -49q-18 0 -37.5 4t-40.5 10q-16 5 -32 13q-19 6 -37 14q-37 14 -70 27q-35 12 -63 12 q-23 0 -39 -8q-17 -10 -31 -33q-2 -4 -4 -6l-4 -8z" />
<glyph unicode="&#xe2;" />
<glyph unicode="&#xe3;" />
<glyph unicode="&#xe4;" />
<glyph unicode="&#xe5;" />
<glyph unicode="&#xe6;" />
<glyph unicode="&#xe7;" />
<glyph unicode="&#xe8;" />
<glyph unicode="&#xe9;" horiz-adv-x="1024" d="M326 1032l102 144h545l-103 -144h-544z" />
<glyph unicode="&#xea;" horiz-adv-x="1024" d="M291 1255l313 2q8 -40 16.5 -71t22.5 -58q14 -32 37 -67q20 -35 53 -82h-115q-86 63 -169 131q-84 66 -158 145z" />
<glyph unicode="&#xeb;" horiz-adv-x="1024" d="M367 979q32 43 55 80q22 35 37 69q12 29 22 60q8 29 15 65v2h276q-6 -8 -12 -14q-6 -8 -15 -14q-36 -39 -77 -76q-41 -39 -82 -74q-37 -28 -72 -55q-37 -27 -70 -47zM688 979q31 41 53 76q21 32 35 63q15 31 25 64q10 30 18 71v2h275q-70 -81 -154 -153 q-84 -74 -174 -127z" />
<glyph unicode="&#xec;" />
<glyph unicode="&#xed;" />
<glyph unicode="&#xee;" />
<glyph unicode="&#xef;" />
<glyph unicode="&#xf1;" horiz-adv-x="1229" d="M406 584v2q0 80 57 137t139 57q84 0 142.5 -57t58.5 -139t-58 -140q-59 -57 -143 -57q-82 0 -139 57q-57 58 -57 140z" />
<glyph unicode="&#xf2;" horiz-adv-x="1024" d="M477 1128q0 72 51 123q50 49 119 49v3q72 -3 123 -52q49 -51 49 -123q0 -69 -49 -118q-51 -52 -123 -52q-69 0 -119 52q-51 49 -51 118zM569 1128q0 -32 23 -55q22 -22 55 -22q35 0 58 22q22 23 22 55q0 35 -22.5 57.5t-57.5 22.5v2q-33 -2 -55.5 -24.5t-22.5 -57.5z" />
<glyph unicode="&#xf3;" horiz-adv-x="1024" d="M432 1157v12v9q2 16 6 34q4 19 11 45l40 3q5 -56 39 -80q35 -27 101 -27q61 0 112 29q52 26 82 73v2h41q-35 -98 -102 -176q-68 -77 -182 -77q-68 0 -107 43q-41 40 -41 110z" />
<glyph unicode="&#xf4;" horiz-adv-x="1024" d="M522 981q33 43 56 80q22 35 36 69q13 29 23 60q8 29 14 65v2h314q-52 -57 -107 -104t-113 -90q-12 -10 -22 -19q-12 -10 -25 -18q-14 -12 -28 -25q-17 -12 -33 -24z" />
<glyph unicode="&#xf5;" horiz-adv-x="2214" d="M55 475q0 270 186.5 506t491.5 348l19 -26q-131 -125 -217 -302q-89 -178 -129 -368q-17 -80 -25 -158q-10 -80 -10 -156q0 -147 53 -231q51 -84 143 -84q37 0 74 14q35 13 70 41q32 27 69 72q35 43 72 105q61 100 119 237q55 135 96 277q31 110 49 219q17 106 17 198 q0 95 -23 140q-25 43 -74 43q-16 0 -30 -4q-17 -7 -33 -17q-88 -53 -164 -221q-78 -170 -100 -371v2l-43 -2q-4 27 -4 49q-3 21 -5 41v21v18q0 39 7 84q6 43 18 88q37 131 125 242t227 111q148 0 226 -111q77 -113 106 -246q8 -43 12 -84t4 -80v-18v-18q-2 -27 -4 -56.5 t-8 -70.5l41 2h21q49 0 71 8q25 8 25 28q0 11 -6 27q-9 14 -31 47q-25 39 -39 82q-16 43 -20 88q-2 12 -2 27q-3 12 -3 24q0 152 107 250q106 99 272 99q127 0 215 -60.5t88 -148.5q0 -115 -79.5 -187.5t-174.5 -122.5q-24 -14 -49 -24q-26 -12 -49 -23l-16 31q20 14 43 35 q22 18 45 41q57 55 108 123q52 67 66 137q4 12 6 24v23q0 41 -22 68q-23 24 -58 24q-59 0 -110.5 -76.5t-89.5 -171.5q-25 -57 -43.5 -112.5t-30.5 -89.5q-25 -64 -39 -99q-14 -37 -27 -55q-6 -12 -14 -20.5t-19 -16.5q-4 -4 -10 -8q-6 -6 -14 -10q-19 -15 -39 -27 q-20 -14 -41 -29q-96 -71 -176 -161q-82 -91 -82 -217q0 -107 66 -173q63 -65 167 -65q54 0 111 13.5t117 39.5q80 37 156.5 93.5t142.5 127.5q51 56 76 99q22 43 22 78q0 16 -4 28t-12 25q-4 8 -11 16q-8 6 -16 14l19 29q20 -16 36 -29q17 -14 31 -28q29 -31 41 -62 q12 -30 12 -69q0 -13 -2 -25q-2 -14 -4 -29q-20 -75 -88 -147q-67 -72 -166 -117q-86 -39 -184 -61q-98 -25 -199 -31q-22 -2 -43 -2q-22 -2 -43 -2q-139 0 -254.5 30.5t-199.5 94.5q-68 -39 -129 -64q-62 -24 -123 -38q-39 -11 -80 -15t-84 -4q-221 0 -356 141 q-138 142 -138 371z" />
<glyph unicode="&#xf6;" horiz-adv-x="1024" d="M465 -193q0 25 6 49.5t21 47.5q12 22 33.5 46.5t49.5 49.5h109q-12 -16 -20.5 -29.5t-12.5 -25.5q-4 -8 -4 -17q-2 -10 -2 -20q0 -45 33 -76t80 -31q24 0 46.5 8.5t43.5 20.5q2 2 6 4q2 0 6 2q8 4 19 10l18 9q6 0 10 -5q4 -4 6 -10v-2v-2q0 -8 -10 -26q-10 -21 -26 -43 q-5 -3 -7 -7l-8 -8q-39 -43 -88 -67q-49 -27 -100 -35h-17q-10 -2 -18 -2q-72 0 -123 47t-51 112z" />
<glyph unicode="&#xf7;" />
<glyph unicode="&#xf8;" />
<glyph unicode="&#xf9;" horiz-adv-x="1024" d="M268 -438q27 14 51 28q23 15 39 29q31 25 47.5 48.5t16.5 43.5q0 21 -16.5 35t-38.5 14l-15 -2l-6 37l103 205h61l-86 -170l20 8q9 2 17 6q33 13 67 25q35 10 70 10q47 0 76 -24q28 -27 28 -66q0 -72 -69 -121q-72 -49 -158 -82q-51 -18 -98 -32q-49 -15 -82 -27z" />
<glyph unicode="&#xfa;" horiz-adv-x="1024" d="M520 1112q0 53 39 90q37 37 90 37v2q53 -2 90 -39t37 -90t-37 -90q-37 -39 -90 -39t-90 39q-39 37 -39 90z" />
<glyph unicode="&#xfb;" horiz-adv-x="1024" d="M395 991q49 45 86 88t64 86q14 25 26 49q13 25 23 50v2h211q12 -72 36.5 -142.5t61.5 -136.5l-82 2q-30 19 -59 41q-29 23 -57 45q-5 2 -7 4q-4 2 -6 6q-16 13 -33 25q-16 12 -32 25q-19 -15 -35.5 -31.5l-32.5 -32.5l-4 -4l-6 -6q-21 -19 -39 -37q-21 -18 -41 -35z" />
<glyph unicode="&#xfc;" horiz-adv-x="1024" d="M395 1253h82q51 -34 100.5 -71t94.5 -78q39 39 77.5 76t79.5 69l74 2q-76 -73 -125 -141t-73 -133v2h-211q-9 41 -19 82q-12 39 -26 78q-13 28 -25 57t-29 57z" />
<glyph unicode="&#xff;" />
<glyph unicode="&#x152;" />
<glyph unicode="&#x153;" horiz-adv-x="1339" d="M-4 186q0 45 10 97q8 49 29 98q26 74 70.5 144.5t99.5 127.5q76 78 162 113q84 35 188 35q70 0 109 -15q38 -14 67 -49l283 64l-17 -43q35 20 72 33q35 10 72 10q55 0 90 -35q35 -37 35 -94q0 -131 -127 -248q-129 -119 -342 -184q-4 -21 -6 -35q-5 -15 -5 -27v-4v-6 q0 -62 45 -96q43 -37 119 -37q54 0 117 14t127 39q39 14 78 33q37 18 71 41l19 -31q-96 -59 -201 -92q-104 -35 -211 -45q-24 -2 -47 -2q-24 -2 -47 -2q-22 0 -47 2q-25 0 -49 2q-58 4 -113 21.5t-96 60.5q-59 -31 -113 -49q-53 -21 -104 -29q-25 -4 -49 -6q-27 -2 -54 -2 q-116 0 -176 49q-59 49 -59 147zM283 145q0 -39 26 -67q27 -31 64 -31q35 0 76 21q38 18 79 55l-10 53q0 14 4 37t13 49q2 8 6 19q2 8 6 16l158 416q-17 26 -39.5 38.5t-55.5 12.5q-37 0 -67 -19q-31 -18 -54 -55q-16 -26 -38.5 -69t-47.5 -95q-12 -28 -22 -57 q-12 -29 -25 -57q-30 -78 -51 -150q-22 -74 -22 -117zM811 266v2q29 19 68 56q39 34 79 77q27 29 51.5 57.5t49.5 59.5q43 57 71 113q29 53 29 92q0 22 -12 37q-12 12 -33 12q-67 0 -143 -127t-160 -379z" />
<glyph unicode="&#x178;" />
<glyph unicode="&#x2c6;" />
<glyph unicode="&#x2dc;" />
<glyph unicode="&#x2000;" horiz-adv-x="746" />
<glyph unicode="&#x2001;" horiz-adv-x="1493" />
<glyph unicode="&#x2002;" horiz-adv-x="746" />
<glyph unicode="&#x2003;" horiz-adv-x="1493" />
<glyph unicode="&#x2004;" horiz-adv-x="497" />
<glyph unicode="&#x2005;" horiz-adv-x="373" />
<glyph unicode="&#x2006;" horiz-adv-x="248" />
<glyph unicode="&#x2007;" horiz-adv-x="248" />
<glyph unicode="&#x2008;" horiz-adv-x="186" />
<glyph unicode="&#x2009;" horiz-adv-x="298" />
<glyph unicode="&#x200a;" horiz-adv-x="82" />
<glyph unicode="&#x2010;" horiz-adv-x="451" d="M-106 344l96 131h399l-94 -131h-401z" />
<glyph unicode="&#x2011;" horiz-adv-x="451" d="M-106 344l96 131h399l-94 -131h-401z" />
<glyph unicode="&#x2012;" horiz-adv-x="451" d="M-106 344l96 131h399l-94 -131h-401z" />
<glyph unicode="&#x2013;" horiz-adv-x="980" d="M-106 344l199 131h825l-194 -131h-830z" />
<glyph unicode="&#x2014;" horiz-adv-x="621" d="M-10 137q0 17 4 36.5t8 39.5q0 4 2 8q0 4 2 8l184 508l328 68l-221 -617q-6 -22 -10 -41.5t-4 -37.5q0 -33 20 -52q21 -18 59 -18q56 0 107 27q49 24 94 57q17 10 33 20q14 11 31 21l18 -19q-92 -82 -186 -116q-97 -37 -207 -37q-123 0 -193 39q-69 37 -69 106z" />
<glyph unicode="&#x2018;" />
<glyph unicode="&#x2019;" />
<glyph unicode="&#x201a;" />
<glyph unicode="&#x201c;" horiz-adv-x="1128" d="M90 344l96 131h838l-94 -131h-840z" />
<glyph unicode="&#x201d;" horiz-adv-x="1128" d="M209 -373l201 930q8 35 16 80t14 92q0 4 2 10v13q90 24 146 65q53 41 90 113q-27 -4 -53.5 -12.5t-53.5 -20.5q-8 -4 -18 -8t-21 -8q-43 -19 -83 -35q-43 -17 -84 -17q-39 0 -68 35q-31 33 -31 80q0 49 31 86q29 35 68 35q34 0 77 -16q41 -19 88 -39q17 -6 32.5 -13.5 t31.5 -15.5q24 -8 47 -14q23 -9 45 -11l4 64q-2 29 -4 58.5t-4 58t-4 59.5q-2 29 -4 59q0 62 33 97q32 32 92 32q61 0 104 -34.5t43 -83.5q0 -31 -31 -74q-30 -43 -69 -88q-6 -6 -10 -12l-13 -13q-30 -35 -59 -67q-31 -33 -47 -60q26 6 63 21q37 12 74 26q53 21 100 37 q47 17 70 17q41 0 70 -31q26 -33 26 -80q0 -45 -28 -80q-31 -37 -70 -37q-21 0 -66 17q-47 16 -98 37q-2 2 -4 2q-4 0 -6 2q-41 14 -78 28q-39 13 -65 19l-7 -39q0 -51 29 -86q27 -37 76 -53q-2 -4 -4 -7.5t-6 -7.5q-11 -16 -21 -35l-24 -36q-9 -19 -19 -37.5t-20 -40.5 l-469 -963z" />
<glyph unicode="&#x201e;" />
<glyph unicode="&#x2022;" />
<glyph unicode="&#x2026;" />
<glyph unicode="&#x202f;" horiz-adv-x="298" />
<glyph unicode="&#x2039;" horiz-adv-x="1153" d="M68 432q16 8 32 21q15 10 31 22q37 29 76 66q37 34 67 69q15 17 29 33q12 14 23 31v2h301q-21 -27 -43 -49q-23 -25 -47 -47q-35 -33 -76 -66q-43 -35 -99 -76l199 -258h-319zM532 432q13 6 27 17l27 18q41 31 82 68q39 36 73 75q15 17 27 33q12 14 23 31v2h301 q-21 -27 -43 -49q-23 -25 -48 -47q-34 -33 -75 -66q-43 -35 -99 -76l199 -258h-319z" />
<glyph unicode="&#x203a;" horiz-adv-x="688" d="M68 432q16 8 32 21q15 10 31 22q37 29 76 66q37 34 67 69q15 17 29 33q12 14 23 31v2h301q-60 -72 -123.5 -131.5t-141.5 -114.5l199 -250h-319z" />
<glyph unicode="&#x205f;" horiz-adv-x="373" />
<glyph unicode="&#x2122;" horiz-adv-x="1022" d="M203 932q0 31 14 63q12 33 33 66q35 51 86 100t106 92q52 41 101 74q47 31 82 51l20 -24q-43 -37 -76 -76q-32 -39 -53 -80q-16 -31 -24 -61q-11 -33 -11 -62q0 -43 22.5 -69.5t55.5 -26.5l27 4l18 -33l-305 -174q-31 25 -51 49q-23 25 -33 49q-6 15 -8 29q-4 15 -4 29z M643 932q0 31 14 63q13 33 35 66q33 49 84 98t105 92q53 41 102 74q47 33 82 53l20 -24q-43 -37 -73 -76q-33 -39 -56 -80q-16 -31 -24 -61q-8 -33 -8 -62q0 -43 21.5 -69.5t53.5 -26.5l27 4l18 -33l-305 -174q-30 25 -51 49q-22 25 -33 49q-6 15 -8 29q-4 15 -4 29z" />
<glyph unicode="&#x25fc;" horiz-adv-x="805" d="M0 0v805h805v-805h-805z" />
</font>
</defs>
</svg>
